<svg width="200" height="100" xmlns="http://www.w3.org/2000/svg" id="Layer_1" data-name="Layer 1" viewBox="0 0 290.53 48.2"><defs><style>.cls-1{fill:white;}</style></defs><path class="cls-1" d="M480.36,63.25A1.39,1.39,0,0,1,479,64.6H465.21a1.34,1.34,0,0,1-1.35-1.35,1.23,1.23,0,0,1,.45-1l2.7-2.6-1.9-4.45a45.21,45.21,0,0,1-10.75-1.2l-2.55,5.7,2.7,2.55a1.37,1.37,0,0,1,.4,1,1.34,1.34,0,0,1-1.35,1.35h-8.95a1.34,1.34,0,0,1-1.35-1.35,1.32,1.32,0,0,1,.35-1l3.45-3.55,2.75-6.2c-9.55-4-12.05-11.75-8.6-17.45a4.18,4.18,0,0,1,3.5-2,3.46,3.46,0,0,1,1,.15l.15.05a3.81,3.81,0,0,1,2.35,5.6c-2.35,4-.8,7.5,3.35,9.75L460,29.55a1.94,1.94,0,0,1,3.55,0l12.95,29.2L480,62.3A1.37,1.37,0,0,1,480.36,63.25Zm-20.8-20.9-3.55,8a32.43,32.43,0,0,0,7.4,1Z" transform="translate(-439.74 -28.4)"/><path class="cls-1" d="M488.56,65.1a5.91,5.91,0,0,1-5.95-6.25V35.1l-1.7-1.5a1.61,1.61,0,0,1,.6-2.75l7.15-2.15a2.51,2.51,0,0,1,.6-.1,1.53,1.53,0,0,1,1,.35,1.78,1.78,0,0,1,.85,1.55V57.15c0,1.8.75,3.05,2.4,3.05a3.16,3.16,0,0,0,1.75-.55,1.23,1.23,0,0,1,1.65.15v.05a1.25,1.25,0,0,1-.05,1.75A11.93,11.93,0,0,1,488.56,65.1Z" transform="translate(-439.74 -28.4)"/><path class="cls-1" d="M532.26,39.9a1.4,1.4,0,0,1,1.4-1.4h5.75a1.34,1.34,0,0,1,1.35,1.35,1.37,1.37,0,0,1-.4.95l-2.3,2.25L532.61,61.3a6,6,0,0,1-11.55,0l-2.8-9.65-2.8,9.65a6,6,0,0,1-11.55,0l-5.45-18.25-2.3-2.25a1.37,1.37,0,0,1-.4-.95,1.34,1.34,0,0,1,1.35-1.35h10.7A1.45,1.45,0,0,1,509.26,40a1.36,1.36,0,0,1-.3.85l-1.6,2.25,4.15,15.1a.52.52,0,0,0,.5.35.48.48,0,0,0,.5-.35l3.75-12.9-3.1-4.45a1.69,1.69,0,0,1-.25-.85,1.45,1.45,0,0,1,1.45-1.45H525a1.41,1.41,0,0,1,1.4,1.45,1.31,1.31,0,0,1-.25.85l-1.6,2.25,4.15,15.1a.52.52,0,0,0,.5.35.43.43,0,0,0,.45-.35l4.6-15.55-1.6-1.8A1.56,1.56,0,0,1,532.26,39.9Z" transform="translate(-439.74 -28.4)"/><path class="cls-1" d="M565.31,60.05l1.9,2.25a1.2,1.2,0,0,1,.35.9,1.43,1.43,0,0,1-1.4,1.4h-5.7a3.6,3.6,0,0,1-3.55-2.9,12.4,12.4,0,0,1-8,3.4c-4.55,0-8.15-2.25-8.15-6.65,0-6.9,11.35-9.15,16-9.75V47.1c0-4.65-2-6.4-4.2-6.4-2.3,0-3.2,2.1-3.55,4.5a3.2,3.2,0,1,1-5.75-2.35c2.15-3,6.2-4.4,10.15-4.4,6.85,0,11.85,2.35,11.85,10Zm-12.7,1.15c1.45,0,3-1.05,4.2-2.2V50.85c-3.15.5-7,2.3-7,6.75C549.76,60,550.66,61.2,552.61,61.2Z" transform="translate(-439.74 -28.4)"/><path class="cls-1" d="M582.81,67.3c-2.2,5-5.9,9.3-11.7,9.3a4.68,4.68,0,0,1-1-9.3,2.62,2.62,0,0,1,.85-.1h1c2,0,3.45.75,4.6.75.9,0,1.6-.4,2.25-1.85l.7-1.5-9.75-21.55-2.25-2.25a1.18,1.18,0,0,1-.4-.95,1.34,1.34,0,0,1,1.35-1.35h11.65A1.45,1.45,0,0,1,581.61,40a1.69,1.69,0,0,1-.25.85l-1.65,2.25L584,52.8a.48.48,0,0,0,.45.3.53.53,0,0,0,.45-.3l4.6-10.2-1.6-1.8a1.29,1.29,0,0,1-.35-1.1,1.4,1.4,0,0,1,1.4-1.2h6.2a1.34,1.34,0,0,1,1.35,1.35,1.37,1.37,0,0,1-.4.95l-2.25,2.25Z" transform="translate(-439.74 -28.4)"/><path class="cls-1" d="M616.21,46.4a1.22,1.22,0,0,1-1.05-.6c-.85-1.5-3.3-5.2-6.35-5.2a2.44,2.44,0,0,0-2.65,2.75c0,6,12.15,4,12.15,13.55,0,5.2-5.7,8.1-11.85,8.1a19.81,19.81,0,0,1-8.1-1.5,1.42,1.42,0,0,1-.9-1.35V57.3a1.43,1.43,0,0,1,1.4-1.4,1.4,1.4,0,0,1,1.3,1c.7,1.85,2.55,5.9,6.15,5.9a3.35,3.35,0,0,0,3.35-3.6c0-5.95-12.2-3.65-12.2-13.3,0-5.1,4.9-7.45,10.45-7.45a25.91,25.91,0,0,1,8.5,1.5,1.5,1.5,0,0,1,1,1.4v3.9A1.22,1.22,0,0,1,616.21,46.4Z" transform="translate(-439.74 -28.4)"/><path class="cls-1" d="M646.56,50.7H644v9.35l2,2.25a1.43,1.43,0,0,1-1.1,2.3H634.71a1.43,1.43,0,0,1-1.1-2.3l1.9-2.25V33l-1.9-2.3a1.43,1.43,0,0,1,1.1-2.3h11.85c7.7,0,14.7,2.4,14.7,11.15S654.26,50.7,646.56,50.7Zm-1.7-18.3H644V45.9a.83.83,0,0,0,.85.8c5.6,0,7.4-2.5,7.4-7.15S650.46,32.4,644.86,32.4Z" transform="translate(-439.74 -28.4)"/><path class="cls-1" d="M671.11,54.8a8.28,8.28,0,0,0,7.5,4.7c3.2,0,5.4-2.2,6.45-3.45a1.26,1.26,0,0,1,1-.45,1.33,1.33,0,0,1,.6.15,1.28,1.28,0,0,1,.6,1.75,13.21,13.21,0,0,1-12,7.6c-8,0-13-5.5-13-13.3s5.55-13.35,13.55-13.35c4.7,0,9,2.75,11.05,9a1.47,1.47,0,0,1-.9,1.85Zm-1-2.55,9.5-3.55c-1.9-4.9-4.25-7-6.4-7a3.81,3.81,0,0,0-1.05.15C669.71,42.7,668.81,47.75,670.11,52.25Z" transform="translate(-439.74 -28.4)"/><path class="cls-1" d="M706.56,59.85a1.25,1.25,0,0,1,0,1.75,12.07,12.07,0,0,1-8.35,3.5,5.93,5.93,0,0,1-5.95-6.25V41.2H691a1.63,1.63,0,0,1-.55-3.15,16.3,16.3,0,0,0,8-5.8,1.41,1.41,0,0,1,1-.5,1.2,1.2,0,0,1,1.2,1.25v5.45l3.8,0a1.38,1.38,0,0,1,0,2.75l-3.8,0V57.15c0,1.8.8,3.05,2.45,3.05a3.13,3.13,0,0,0,1.7-.55,1.49,1.49,0,0,1,.75-.25,1.17,1.17,0,0,1,.9.4Z" transform="translate(-439.74 -28.4)"/><path class="cls-1" d="M728.16,46.4a1.22,1.22,0,0,1-1-.6c-.85-1.5-3.3-5.2-6.35-5.2a2.44,2.44,0,0,0-2.65,2.75c0,6,12.15,4,12.15,13.55,0,5.2-5.7,8.1-11.85,8.1a19.81,19.81,0,0,1-8.1-1.5,1.42,1.42,0,0,1-.9-1.35V57.3a1.43,1.43,0,0,1,1.4-1.4,1.4,1.4,0,0,1,1.3,1c.7,1.85,2.55,5.9,6.15,5.9a3.35,3.35,0,0,0,3.35-3.6c0-5.95-12.2-3.65-12.2-13.3,0-5.1,4.9-7.45,10.45-7.45a25.91,25.91,0,0,1,8.5,1.5,1.5,1.5,0,0,1,1,1.4v3.9A1.22,1.22,0,0,1,728.16,46.4Z" transform="translate(-439.74 -28.4)"/></svg>