<svg xmlns="http://www.w3.org/2000/svg" width="240" height="69" viewBox="0 0 240 69" fill="none">
<mask id="mask0_1586_5868" style="mask-type:alpha" maskUnits="userSpaceOnUse" x="0" y="0" width="240" height="69">
<path d="M0 0H240V69H0V0Z" fill="#C4C4C4"/>
</mask>
<g mask="url(#mask0_1586_5868)">
<path d="M51.2537 37.0443H54.4917L55.9812 33.5472H62.5004L63.9899 37.0443H67.271L60.6439 21.7177H57.8592L51.2537 37.0443ZM57.1253 30.8057L59.2408 25.8191L61.3563 30.8057H57.1253Z" fill="white"/>
<path d="M68.815 41.5559H71.7724V35.8354C72.2689 36.5262 73.413 37.2817 74.9024 37.2817C77.7735 37.2817 79.9753 34.7129 79.9753 31.6476C79.9753 28.5823 77.7735 26.0134 74.9024 26.0134C73.413 26.0134 72.2689 26.769 71.7724 27.4597V26.2509H68.815V41.5559ZM76.9748 31.6476C76.9748 33.3313 75.8738 34.5834 74.2548 34.5834C72.6358 34.5834 71.5349 33.3313 71.5349 31.6476C71.5349 29.9638 72.6358 28.7118 74.2548 28.7118C75.8738 28.7118 76.9748 29.9638 76.9748 31.6476Z" fill="white"/>
<path d="M82.2537 41.5559H85.2111V35.8354C85.7076 36.5262 86.8517 37.2817 88.3412 37.2817C91.2122 37.2817 93.4141 34.7129 93.4141 31.6476C93.4141 28.5823 91.2122 26.0134 88.3412 26.0134C86.8517 26.0134 85.7076 26.769 85.2111 27.4597V26.2509H82.2537V41.5559ZM90.4135 31.6476C90.4135 33.3313 89.3126 34.5834 87.6936 34.5834C86.0746 34.5834 84.9737 33.3313 84.9737 31.6476C84.9737 29.9638 86.0746 28.7118 87.6936 28.7118C89.3126 28.7118 90.4135 29.9638 90.4135 31.6476Z" fill="white"/>
<path d="M95.6925 37.0443H98.6499V20.8542H95.6925V37.0443Z" fill="white"/>
<path d="M112.097 33.5256H109.01C108.664 34.2596 107.758 34.7129 106.721 34.7129C104.887 34.7129 103.937 33.612 103.807 32.3384H112.226C112.377 28.28 109.765 26.0134 106.592 26.0134C103.311 26.0134 100.915 28.4096 100.915 31.626C100.915 34.9072 103.268 37.2817 106.57 37.2817C109.312 37.2817 111.449 35.7059 112.097 33.5256ZM106.506 28.4096C107.52 28.4096 108.621 28.9492 108.988 30.3955H103.915C104.196 29.2083 105.146 28.4096 106.506 28.4096Z" fill="white"/>
<path d="M119.804 37.0443H124.855C129.259 37.0443 132.735 33.6551 132.735 29.381C132.735 25.1068 129.259 21.7177 124.855 21.7177H119.804V37.0443ZM122.934 34.1732V24.5887H124.855C127.683 24.5887 129.583 26.7258 129.583 29.381C129.583 32.0361 127.683 34.1732 124.855 34.1732H122.934Z" fill="white"/>
<path d="M145.583 33.5256H142.496C142.15 34.2596 141.244 34.7129 140.207 34.7129C138.373 34.7129 137.423 33.612 137.293 32.3384H145.712C145.863 28.28 143.251 26.0134 140.078 26.0134C136.797 26.0134 134.401 28.4096 134.401 31.626C134.401 34.9072 136.754 37.2817 140.056 37.2817C142.798 37.2817 144.935 35.7059 145.583 33.5256ZM139.992 28.4096C141.006 28.4096 142.107 28.9492 142.474 30.3955H137.401C137.682 29.2083 138.632 28.4096 139.992 28.4096Z" fill="white"/>
<path d="M156.66 34.0005C156.66 32.3168 155.775 31.1943 153.659 30.6546L151.76 30.1365C151.112 29.9854 150.529 29.7479 150.529 29.1435C150.529 28.6254 151.047 28.3232 151.803 28.3232C152.451 28.3232 153.077 28.6038 153.228 29.4241H156.207C156.034 27.2655 154.221 26.0134 151.846 26.0134C149.148 26.0134 147.507 27.3518 147.507 29.2083C147.507 30.7841 148.371 32.0793 150.249 32.5542L152.278 33.0723C153.228 33.3098 153.638 33.5904 153.638 34.1516C153.638 34.6697 153.163 35.0151 152.235 35.0151C151.285 35.0151 150.465 34.5618 150.357 33.612H147.27C147.378 35.7275 149.364 37.2817 152.148 37.2817C154.76 37.2817 156.66 36.0297 156.66 34.0005Z" fill="white"/>
<path d="M162.28 22.6027C162.28 21.5666 161.438 20.7247 160.38 20.7247C159.365 20.7247 158.502 21.5666 158.502 22.6027C158.502 23.6389 159.365 24.4808 160.38 24.4808C161.438 24.4808 162.28 23.6389 162.28 22.6027ZM158.912 37.0443H161.87V26.2509H158.912V37.0443Z" fill="white"/>
<path d="M164.588 37.7135C164.803 40.0232 166.811 41.7718 169.855 41.7718C172.661 41.7718 175.316 40.2823 175.316 36.3751V26.2509H172.359V27.4597C171.798 26.6394 170.61 26.0134 169.229 26.0134C166.422 26.0134 164.134 28.4311 164.134 31.4749C164.134 34.497 166.422 36.9148 169.229 36.9148C170.61 36.9148 171.798 36.2887 172.359 35.49V36.7636C172.359 38.469 171.215 39.3109 169.92 39.3109C168.689 39.3109 167.847 38.8144 167.48 37.7135H164.588ZM172.596 31.4749C172.596 33.1155 171.344 34.238 169.855 34.238C168.365 34.238 167.113 33.1155 167.113 31.4749C167.113 29.8127 168.365 28.7118 169.855 28.7118C171.344 28.7118 172.596 29.8127 172.596 31.4749Z" fill="white"/>
<path d="M178.285 37.0443H181.242V31.7771C181.242 29.7048 182.278 28.7118 183.638 28.7118C184.869 28.7118 185.538 29.6616 185.538 31.2158V37.0443H188.495V30.7193C188.495 27.9131 186.941 26.0134 184.329 26.0134C182.926 26.0134 181.803 26.6179 181.242 27.4813V26.2509H178.285V37.0443Z" fill="white"/>
<path d="M60.7292 62.44H63.9672L65.4567 58.9429H71.9759L73.4654 62.44H76.7466L70.1195 47.1134H67.3348L60.7292 62.44ZM66.6008 56.2014L68.7163 51.2149L70.8318 56.2014H66.6008Z" fill="white"/>
<path d="M86.9183 62.44H89.8541L93.4159 51.6466H90.2427L88.2135 58.5544L86.0117 51.6466H83.7451L81.5648 58.5544L79.5141 51.6466H76.3624L79.9458 62.44H82.8816L84.8892 56.2877L86.9183 62.44Z" fill="white"/>
<path d="M94.2217 57.0433C94.2217 60.1086 96.4235 62.6774 99.2946 62.6774C100.784 62.6774 101.928 61.9219 102.403 61.2311V62.44H105.36V51.6466H102.403V52.8554C101.928 52.1647 100.784 51.4091 99.2946 51.4091C96.4235 51.4091 94.2217 53.978 94.2217 57.0433ZM102.641 57.0433C102.641 58.7271 101.54 59.9791 99.9206 59.9791C98.3016 59.9791 97.2007 58.7271 97.2007 57.0433C97.2007 55.3595 98.3016 54.1075 99.9206 54.1075C101.54 54.1075 102.641 55.3595 102.641 57.0433Z" fill="white"/>
<path d="M108.351 62.44H111.309V57.2807C111.309 55.5106 112.237 54.4097 113.64 54.4097C114.115 54.4097 114.525 54.496 114.978 54.6471V51.6466C114.611 51.5387 114.288 51.5171 113.985 51.5171C112.777 51.5171 111.676 52.3158 111.309 53.3735V51.6466H108.351V62.44Z" fill="white"/>
<path d="M115.913 57.0433C115.913 60.1086 118.115 62.6774 120.986 62.6774C122.476 62.6774 123.62 61.9219 124.095 61.2311V62.44H127.052V46.2499H124.095V52.8554C123.62 52.1647 122.476 51.4091 120.986 51.4091C118.115 51.4091 115.913 53.978 115.913 57.0433ZM124.332 57.0433C124.332 58.7271 123.231 59.9791 121.612 59.9791C119.993 59.9791 118.892 58.7271 118.892 57.0433C118.892 55.3595 119.993 54.1075 121.612 54.1075C123.231 54.1075 124.332 55.3595 124.332 57.0433Z" fill="white"/>
<path d="M144.979 59.5258H138.632C139.042 58.5328 140.661 57.6909 141.611 56.9785C143.554 55.5538 144.849 54.2154 144.849 51.5818C144.849 48.4517 142.518 46.8543 139.927 46.8543C136.884 46.8543 134.574 48.9267 134.574 51.9272H137.553C137.531 50.6968 138.503 49.7685 139.863 49.7685C141.179 49.7685 141.892 50.632 141.892 51.7545C141.892 53.0066 140.812 53.9564 139.474 54.9062C137.229 56.5252 134.531 57.9931 134.531 61.4254V62.44H144.979V59.5258Z" fill="white"/>
<path d="M158.656 56.6115V52.8986C158.656 49.4016 156.303 46.8543 152.957 46.8543C149.59 46.8543 147.237 49.4016 147.237 52.8986V56.6115C147.237 60.1302 149.59 62.6774 152.957 62.6774C156.303 62.6774 158.656 60.1302 158.656 56.6115ZM150.194 56.6115V52.8986C150.194 50.9342 151.317 49.7685 152.957 49.7685C154.576 49.7685 155.699 50.9342 155.699 52.8986V56.6115C155.699 58.5975 154.576 59.7632 152.957 59.7632C151.317 59.7632 150.194 58.5975 150.194 56.6115Z" fill="white"/>
<path d="M171.203 59.5258H164.856C165.266 58.5328 166.885 57.6909 167.835 56.9785C169.778 55.5538 171.073 54.2154 171.073 51.5818C171.073 48.4517 168.742 46.8543 166.151 46.8543C163.108 46.8543 160.798 48.9267 160.798 51.9272H163.777C163.755 50.6968 164.727 49.7685 166.087 49.7685C167.403 49.7685 168.116 50.632 168.116 51.7545C168.116 53.0066 167.036 53.9564 165.698 54.9062C163.453 56.5252 160.755 57.9931 160.755 61.4254V62.44H171.203V59.5258Z" fill="white"/>
<path d="M175.641 62.44H178.598V47.1134H174.562L172.403 50.0276H175.641V62.44Z" fill="white"/>
<path d="M99.1343 10.2909H101.054L103.467 0.270494H101.294L99.7694 6.93194L96.9326 0.101135L94.0959 6.93194L92.5716 0.270494H90.3982L92.8116 10.2909H94.731L96.9326 4.9702L99.1343 10.2909Z" fill="white"/>
<path d="M105.378 10.2909H107.424V0.270494H105.378V10.2909Z" fill="white"/>
<path d="M119.155 10.2909V0.270494H117.109V6.80492L111.972 0.270494H110.208V10.2909H112.254V3.75646L117.391 10.2909H119.155Z" fill="white"/>
<path d="M130.89 10.2909V0.270494H128.843V6.80492L123.706 0.270494H121.942V10.2909H123.988V3.75646L129.126 10.2909H130.89Z" fill="white"/>
<path d="M133.677 10.2909H139.915V8.34326H135.723V6.22627H139.068V4.27865H135.723V2.21812H139.915V0.270494H133.677V10.2909Z" fill="white"/>
<path d="M142.255 10.2909H144.301V6.07103H144.809L148.239 10.2909H150.709L147.11 5.84522C148.437 5.42182 149.17 4.57503 149.17 3.23427C149.17 1.56891 147.971 0.270494 146.094 0.270494H142.255V10.2909ZM144.301 4.32099V2.14755H145.854C146.616 2.14755 147.138 2.54272 147.138 3.23427C147.138 3.91171 146.616 4.32099 145.854 4.32099H144.301Z" fill="white"/>
<path fill-rule="evenodd" clip-rule="evenodd" d="M223.314 10.53C223.499 10.3252 223.816 10.3094 224.02 10.4947C228.313 14.3785 230.809 19.5996 232.191 24.5176C233.573 29.4327 233.854 34.086 233.684 36.8903C232.868 57.6214 215.721 65.837 207.273 67.3575C207.002 67.4064 206.742 67.2258 206.693 66.954C206.644 66.6822 206.825 66.4222 207.096 66.3733C215.315 64.894 231.898 56.9108 232.685 36.8458L232.686 36.8352L232.686 36.8352C232.849 34.1389 232.58 29.595 231.229 24.7882C229.877 19.9812 227.457 14.9523 223.349 11.2362C223.145 11.0509 223.129 10.7347 223.314 10.53Z" fill="white"/>
<path d="M223.819 62.0063C221.48 62.0063 219.431 62.8219 218.526 63.8698C218.482 63.9211 218.47 63.9922 218.495 64.055C219.066 65.4883 221.376 66.2309 223.819 66.2309C225.717 66.2309 227.945 64.5504 229.022 63.0969C229.104 62.9858 229.043 62.8299 228.909 62.7958C227.091 62.3324 226.106 62.0063 223.819 62.0063Z" fill="white"/>
<path d="M219.322 57.4358C219.322 59.3937 218.531 61.0901 217.027 61.6351C216.957 61.6605 216.879 61.6413 216.828 61.587C216.128 60.8438 215.685 59.789 215.685 57.8654C215.685 55.9549 216.727 54.2331 217.547 53.3565C217.612 53.2869 217.717 53.2766 217.786 53.3421C218.332 53.8583 219.322 55.5827 219.322 57.4358Z" fill="white"/>
<path d="M223.847 52.8179C224.588 55.2919 223.485 56.8314 222.657 57.4798C222.586 57.5354 222.487 57.5313 222.421 57.4701C221.941 57.0262 221.097 55.9821 220.584 54.2721C220.054 52.5012 220.883 50.5355 221.43 49.4864C221.474 49.4018 221.572 49.3611 221.66 49.399C222.235 49.6484 223.136 50.4438 223.847 52.8179Z" fill="white"/>
<path d="M227.741 47.7506C228.697 50.0269 227.641 51.8443 226.903 52.5707C226.839 52.6339 226.74 52.6403 226.668 52.5858C226.152 52.1946 225.161 51.1861 224.501 49.6136C223.817 47.985 224.061 45.7954 224.443 44.7172C224.475 44.6273 224.568 44.577 224.66 44.6035C225.323 44.7957 226.819 45.5553 227.741 47.7506Z" fill="white"/>
<path d="M229.884 40.6106C231.188 42.7131 230.577 44.9011 229.976 45.7573C229.924 45.8311 229.827 45.8528 229.749 45.8083C229.156 45.4718 227.874 44.4201 226.971 42.9645C226.037 41.4598 226.225 39.0939 226.46 37.9525C226.48 37.8591 226.564 37.7947 226.658 37.8112C227.302 37.9241 228.629 38.5895 229.884 40.6106Z" fill="white"/>
<path d="M230.749 34.2581C232.461 35.9123 232.219 37.9232 231.841 38.851C231.807 38.9346 231.718 38.9794 231.631 38.9575C231.022 38.8049 229.763 38.2862 228.582 37.1447C227.357 35.9605 226.973 33.7109 226.923 32.5865C226.919 32.4912 226.985 32.4081 227.08 32.4015C227.712 32.3576 229.106 32.6698 230.749 34.2581Z" fill="white"/>
<path d="M229.942 27.5172C231.216 28.5104 231.816 30.2602 231.876 31.4849C231.881 31.5952 231.791 31.685 231.681 31.6804C230.855 31.6458 229.996 31.3799 228.62 30.4575C227.24 29.5325 226.713 27.7924 226.48 26.719C226.454 26.5959 226.549 26.4807 226.675 26.4782C227.516 26.4614 228.531 26.417 229.942 27.5172Z" fill="white"/>
<path d="M227.953 21.704C230.061 22.4924 230.614 24.3241 230.64 25.2759C230.642 25.3661 230.579 25.4427 230.49 25.4572C229.899 25.5538 228.613 25.5765 227.161 25.0334C225.652 24.4688 224.47 22.6663 223.999 21.7056C223.957 21.62 223.984 21.5172 224.069 21.4737C224.607 21.1981 225.933 20.9484 227.953 21.704Z" fill="white"/>
<path d="M225.208 16.6721C227.424 17.0614 228.303 18.7608 228.502 19.6919C228.521 19.7801 228.473 19.867 228.388 19.8976C227.825 20.1007 226.565 20.3584 225.038 20.0903C223.451 19.8115 221.959 18.2558 221.32 17.3977C221.263 17.3212 221.271 17.2151 221.347 17.1568C221.825 16.7873 223.084 16.2991 225.208 16.6721Z" fill="white"/>
<path d="M221.452 12.1013C223.701 12.1777 224.809 13.738 225.136 14.6322C225.167 14.7169 225.131 14.8097 225.052 14.8519C224.522 15.1315 223.311 15.5624 221.761 15.5097C220.151 15.4549 218.457 14.1224 217.704 13.3617C217.637 13.294 217.63 13.1877 217.697 13.1195C218.119 12.6869 219.297 12.028 221.452 12.1013Z" fill="white"/>
<path d="M227.931 8.19851C228.858 10.2491 227.949 11.9328 227.292 12.622C227.23 12.6873 227.131 12.6963 227.058 12.6435C226.573 12.2926 225.65 11.3968 225.011 9.98421C224.347 8.516 224.792 6.40682 225.141 5.39534C225.172 5.30522 225.265 5.25232 225.355 5.28182C225.93 5.46888 227.043 6.2336 227.931 8.19851Z" fill="white"/>
<path d="M213.905 9.24809C217.97 7.13123 220.601 8.56322 221.553 9.69527C221.628 9.78464 221.598 9.91805 221.496 9.97603C217.791 12.0961 214.972 10.6775 213.852 9.54598C213.762 9.45559 213.792 9.30683 213.905 9.24809Z" fill="white"/>
<path d="M219.609 1.10496C223.509 4.01094 223.344 7.18467 222.698 8.60516C222.65 8.71146 222.517 8.74204 222.42 8.67606C218.683 6.116 218.749 2.76683 219.317 1.18608C219.36 1.06638 219.507 1.02898 219.609 1.10496Z" fill="white"/>
<path d="M211.877 2.80446C216.455 2.57936 218.247 4.97956 218.639 6.40553C218.67 6.51811 218.587 6.62669 218.47 6.63704C214.219 7.01547 212.249 4.5488 211.705 3.05284C211.661 2.93334 211.75 2.8107 211.877 2.80446Z" fill="white"/>
<path d="M229.185 55.8655C227.228 56.2568 225.161 58.0596 224.707 59.2335C224.688 59.283 224.692 59.3378 224.72 59.383C225.296 60.3237 227.62 60.5694 229.685 59.8654C231.221 59.3417 232.951 57.7315 233.856 56.5085C233.934 56.4026 233.885 56.2533 233.76 56.2126C232.705 55.8699 231.033 55.4958 229.185 55.8655Z" fill="white"/>
<path d="M233.171 49.2319C231.317 49.8614 230.19 51.8382 229.723 53.2728C229.691 53.3719 229.743 53.4778 229.841 53.5116C231.05 53.9251 232.805 53.9801 234.573 52.7878C235.937 51.8675 237.211 50.0141 237.949 48.8672C238.031 48.7397 237.946 48.5735 237.794 48.5698C236.794 48.5459 234.885 48.6502 233.171 49.2319Z" fill="white"/>
<path d="M234.908 42.4317C233.269 43.5027 232.985 45.4872 232.639 47.0849C232.615 47.194 232.685 47.3022 232.795 47.321C234.472 47.6083 236.052 47.0414 237.48 45.4325C238.654 44.1087 239.323 42.367 239.519 40.8338C239.536 40.702 239.419 40.595 239.289 40.624C238.333 40.8382 236.459 41.4179 234.908 42.4317Z" fill="white"/>
<path d="M234.413 39.3434L234.413 39.3531C234.413 39.4857 234.54 39.5815 234.666 39.54C236.344 38.9868 237.938 37.6769 238.681 36.3032C239.414 34.9471 239.795 32.9069 239.608 31.1925C239.592 31.044 239.422 30.9726 239.301 31.0602C237.929 32.0522 236.731 32.9503 235.62 34.544C234.403 36.29 234.408 37.8871 234.413 39.3434Z" fill="white"/>
<path d="M238.032 27.9763C237.655 29.8609 235.848 31.2817 234.664 31.9972C234.556 32.0625 234.417 32.0093 234.382 31.8879C233.956 30.3968 233.98 28.3099 234.454 26.8857C234.811 25.8153 236.322 24.2349 237.471 23.08C237.572 22.9782 237.742 23.0142 237.785 23.1513C238.092 24.1437 238.392 26.1729 238.032 27.9763Z" fill="white"/>
<path d="M236.075 20.0086C236.139 21.8262 234.511 23.9007 233.543 24.8647C233.453 24.9538 233.306 24.934 233.244 24.824C232.533 23.5623 232.149 21.834 232.276 20.4209C232.371 19.3577 233.541 17.1339 234.364 15.7637C234.438 15.6407 234.612 15.6355 234.688 15.7573C235.208 16.5893 236.014 18.2759 236.075 20.0086Z" fill="white"/>
<path d="M232.6 13.8734C232.964 15.6969 231.971 17.3818 231.288 18.1703C231.198 18.2734 231.036 18.2481 230.972 18.1275C230.594 17.4134 229.928 16.2318 229.6 14.8734C229.194 13.195 229.681 11.3441 230.02 10.1523C230.058 10.0175 230.219 9.96435 230.325 10.0563C231.047 10.6834 232.24 12.0766 232.6 13.8734Z" fill="white"/>
<path fill-rule="evenodd" clip-rule="evenodd" d="M16.6861 10.53C16.5008 10.3252 16.1847 10.3094 15.9799 10.4947C11.6872 14.3785 9.19127 19.5996 7.80899 24.5176C6.42754 29.4327 6.14669 34.086 6.31594 36.8903C7.13178 57.6214 24.2795 65.837 32.7268 67.3575C32.9985 67.4064 33.2585 67.2258 33.3074 66.954C33.3564 66.6822 33.1757 66.4222 32.9039 66.3733C24.6852 64.894 8.10182 56.9108 7.31496 36.8458L7.31454 36.8352L7.31443 36.8352C7.15102 34.1389 7.42069 29.595 8.77169 24.7882C10.1228 19.9812 12.5435 14.9523 16.6508 11.2362C16.8556 11.0509 16.8714 10.7347 16.6861 10.53Z" fill="white"/>
<path d="M16.1817 62.0063C18.5201 62.0063 20.5696 62.8219 21.4738 63.8698C21.518 63.9211 21.5306 63.9922 21.5056 64.055C20.9347 65.4883 18.6245 66.2309 16.1817 66.2309C14.2835 66.2309 12.0552 64.5504 10.9784 63.0969C10.8961 62.9858 10.9572 62.8299 11.0912 62.7958C12.9095 62.3324 13.8947 62.0063 16.1817 62.0063Z" fill="white"/>
<path d="M20.6781 57.4358C20.6781 59.3937 21.4688 61.0901 22.973 61.6351C23.0431 61.6605 23.1215 61.6413 23.1726 61.587C23.872 60.8438 24.3154 59.789 24.3154 57.8654C24.3154 55.9549 23.2733 54.2331 22.4537 53.3565C22.3886 53.2869 22.2834 53.2766 22.2141 53.3421C21.6686 53.8583 20.6781 55.5827 20.6781 57.4358Z" fill="white"/>
<path d="M16.1529 52.8179C15.4118 55.2919 16.5149 56.8314 17.3431 57.4798C17.4141 57.5354 17.5133 57.5313 17.5795 57.4701C18.0596 57.0262 18.9036 55.9821 19.4159 54.2721C19.9464 52.5012 19.1177 50.5355 18.5702 49.4864C18.5261 49.4018 18.4278 49.3611 18.3404 49.399C17.7656 49.6484 16.8641 50.4438 16.1529 52.8179Z" fill="white"/>
<path d="M12.2591 47.7506C11.3034 50.0269 12.3593 51.8443 13.0974 52.5707C13.1617 52.6339 13.2606 52.6403 13.3324 52.5858C13.8485 52.1946 14.839 51.1861 15.4991 49.6136C16.1829 47.985 15.939 45.7954 15.5571 44.7172C15.5252 44.6273 15.4322 44.577 15.3407 44.6035C14.677 44.7957 13.1808 45.5553 12.2591 47.7506Z" fill="white"/>
<path d="M10.1167 40.6106C8.812 42.7131 9.42307 44.9011 10.0247 45.7573C10.0765 45.8311 10.1732 45.8528 10.2516 45.8083C10.8442 45.4718 12.1259 44.4201 13.0291 42.9645C13.9628 41.4598 13.7755 39.0939 13.5398 37.9525C13.5205 37.8591 13.4364 37.7947 13.3425 37.8112C12.6979 37.9241 11.3708 38.5895 10.1167 40.6106Z" fill="white"/>
<path d="M9.25106 34.2581C7.5396 35.9123 7.78157 37.9232 8.1593 38.851C8.1933 38.9346 8.2818 38.9794 8.36929 38.9575C8.97825 38.8049 10.2374 38.2862 11.4184 37.1447C12.6436 35.9605 13.027 33.7109 13.0768 32.5865C13.081 32.4912 13.015 32.4081 12.9199 32.4015C12.288 32.3576 10.8944 32.6698 9.25106 34.2581Z" fill="white"/>
<path d="M10.0581 27.5172C8.78423 28.5104 8.18425 30.2602 8.12448 31.4849C8.1191 31.5952 8.20905 31.685 8.31941 31.6804C9.14509 31.6458 10.0039 31.3799 11.3803 30.4575C12.7606 29.5325 13.2877 27.7924 13.5199 26.719C13.5465 26.5959 13.4517 26.4807 13.3257 26.4782C12.4838 26.4614 11.4693 26.417 10.0581 27.5172Z" fill="white"/>
<path d="M12.0471 21.704C9.93935 22.4924 9.38619 24.3241 9.36069 25.2759C9.35827 25.3661 9.42171 25.4427 9.51072 25.4572C10.1015 25.5538 11.3874 25.5765 12.8394 25.0334C14.3485 24.4688 15.5305 22.6663 16.0017 21.7056C16.0437 21.62 16.0161 21.5172 15.9312 21.4737C15.3934 21.1981 14.0668 20.9484 12.0471 21.704Z" fill="white"/>
<path d="M14.7927 16.6721C12.5762 17.0614 11.6971 18.7608 11.4978 19.6919C11.4789 19.7801 11.5272 19.867 11.6121 19.8976C12.1752 20.1007 13.4352 20.3584 14.9621 20.0903C16.549 19.8115 18.0411 18.2558 18.6802 17.3977C18.7371 17.3212 18.7288 17.2151 18.6534 17.1568C18.175 16.7873 16.9166 16.2991 14.7927 16.6721Z" fill="white"/>
<path d="M18.5479 12.1013C16.2988 12.1777 15.1913 13.738 14.8641 14.6322C14.8331 14.7169 14.8689 14.8097 14.9486 14.8519C15.4779 15.1315 16.6897 15.5624 18.239 15.5097C19.8494 15.4549 21.5437 14.1224 22.2962 13.3617C22.3633 13.294 22.3698 13.1877 22.3032 13.1195C21.8811 12.6869 20.703 12.028 18.5479 12.1013Z" fill="white"/>
<path d="M12.0695 8.19851C11.1424 10.2491 12.0513 11.9328 12.7083 12.622C12.7705 12.6873 12.8696 12.6963 12.9426 12.6435C13.4277 12.2926 14.3504 11.3968 14.989 9.98421C15.6528 8.516 15.2079 6.40682 14.859 5.39534C14.8279 5.30522 14.7355 5.25232 14.6448 5.28182C14.0701 5.46888 12.9577 6.2336 12.0695 8.19851Z" fill="white"/>
<path d="M26.0953 9.24809C22.0301 7.13123 19.399 8.56322 18.4476 9.69527C18.3725 9.78464 18.4027 9.91805 18.5041 9.97603C22.2091 12.0961 25.0286 10.6775 26.1486 9.54598C26.238 9.45559 26.2081 9.30683 26.0953 9.24809Z" fill="white"/>
<path d="M20.3914 1.10496C16.4908 4.01094 16.6566 7.18467 17.3019 8.60516C17.3502 8.71146 17.4836 8.74204 17.5799 8.67606C21.3171 6.116 21.2509 2.76683 20.6834 1.18608C20.6405 1.06638 20.4934 1.02898 20.3914 1.10496Z" fill="white"/>
<path d="M28.1228 2.80446C23.5451 2.57936 21.7528 4.97956 21.3613 6.40553C21.3303 6.51811 21.4136 6.62669 21.5298 6.63704C25.7817 7.01547 27.7508 4.5488 28.2957 3.05284C28.3392 2.93334 28.2499 2.8107 28.1228 2.80446Z" fill="white"/>
<path d="M10.8154 55.8655C12.7719 56.2568 14.8389 58.0596 15.293 59.2335C15.3121 59.283 15.3084 59.3378 15.2807 59.383C14.7038 60.3237 12.3799 60.5694 10.3154 59.8654C8.77933 59.3417 7.04941 57.7315 6.14463 56.5085C6.06627 56.4026 6.11501 56.2533 6.2403 56.2126C7.29515 55.8699 8.96719 55.4958 10.8154 55.8655Z" fill="white"/>
<path d="M6.82893 49.2319C8.6833 49.8614 9.81027 51.8382 10.2771 53.2728C10.3094 53.3719 10.2574 53.4778 10.1588 53.5116C8.95064 53.9251 7.19492 53.9801 5.42759 52.7878C4.06355 51.8675 2.78931 50.0141 2.05145 48.8672C1.96941 48.7397 2.05443 48.5735 2.20603 48.5698C3.20669 48.5459 5.11516 48.6502 6.82893 49.2319Z" fill="white"/>
<path d="M5.09234 42.4317C6.73126 43.5027 7.01496 45.4872 7.36117 47.0849C7.38481 47.194 7.31544 47.3022 7.20539 47.321C5.52836 47.6083 3.94798 47.0414 2.5204 45.4325C1.3458 44.1087 0.677735 42.367 0.481041 40.8338C0.464135 40.702 0.581419 40.595 0.711077 40.624C1.66729 40.8382 3.541 41.4179 5.09234 42.4317Z" fill="white"/>
<path d="M5.58726 39.3434L5.58723 39.3531C5.58678 39.4857 5.46001 39.5815 5.33406 39.54C3.65576 38.9868 2.06179 37.6769 1.31949 36.3032C0.586718 34.9471 0.205567 32.9069 0.391881 31.1925C0.408017 31.044 0.57808 30.9726 0.699099 31.0602C2.07078 32.0522 3.26895 32.9503 4.3802 34.544C5.59759 36.29 5.59219 37.8871 5.58726 39.3434Z" fill="white"/>
<path d="M1.96859 27.9763C2.3455 29.8609 4.15246 31.2817 5.33588 31.9972C5.44388 32.0625 5.58304 32.0093 5.61777 31.8879C6.0446 30.3968 6.0207 28.3099 5.5459 26.8857C5.18905 25.8153 3.67846 24.2349 2.52943 23.08C2.42816 22.9782 2.25799 23.0142 2.21556 23.1513C1.90858 24.1437 1.6079 26.1729 1.96859 27.9763Z" fill="white"/>
<path d="M3.92503 20.0086C3.86129 21.8262 5.48921 23.9007 6.45746 24.8647C6.5469 24.9538 6.69464 24.934 6.75655 24.824C7.46684 23.5623 7.8513 21.834 7.72473 20.4209C7.6295 19.3577 6.45884 17.1339 5.63603 15.7637C5.56211 15.6407 5.3878 15.6355 5.3118 15.7573C4.79271 16.5893 3.9858 18.2759 3.92503 20.0086Z" fill="white"/>
<path d="M7.40063 13.8734C7.03594 15.6969 8.02895 17.3818 8.71235 18.1703C8.80175 18.2734 8.96416 18.2481 9.02805 18.1275C9.40628 17.4134 10.0725 16.2318 10.4006 14.8734C10.8061 13.195 10.3196 11.3441 9.98036 10.1523C9.94199 10.0175 9.78144 9.96435 9.67559 10.0563C8.95339 10.6834 7.76 12.0766 7.40063 13.8734Z" fill="white"/>
</g>
</svg>