<svg xmlns="http://www.w3.org/2000/svg" width="135" height="35" viewBox="0 0 135 35" fill="none">
<path fill-rule="evenodd" clip-rule="evenodd" d="M9.96684 16.762H7.314L7.31305 33.2333H10.4457C13.6883 33.2333 15.5522 30.1838 15.6099 25.3446C15.6778 19.6451 13.4302 16.762 9.96684 16.762ZM9.19311 1.3974L7.314 1.38719V16.2437H10.2983C12.8777 16.2437 14.9898 13.5355 14.9753 8.80987C14.9587 3.53434 12.6197 1.3974 9.19311 1.3974ZM11.3669 33.5372H0.0553763C-0.0184588 33.5372 -0.0184588 33.2333 0.0553763 33.2333H3.29034L3.29771 1.3917L0.0553763 1.3974V1.07214H9.74581C13.8725 1.07214 19.0243 1.87246 19.2081 8.62563C19.3895 15.2841 13.7573 16.5072 11.1781 16.5072C15.3048 16.5072 20.3488 19.5874 20.3488 25.0683C20.3488 29.4438 16.7096 33.5372 11.3669 33.5372" fill="white"/>
<path fill-rule="evenodd" clip-rule="evenodd" d="M28.827 7.23683L24.4465 23.5897H32.7908L28.827 7.23683ZM32.0401 33.4896V33.2571L35.5921 33.259L32.9881 23.9411H24.4499L22.6344 30.6342C22.2291 32.2923 22.0442 33.2571 22.0442 33.2571H25.5011V33.4896H18.4341V33.2571H21.6831C21.6831 33.2571 21.8616 32.4305 22.3037 30.6342L30.4834 4.9434e-05L39.8899 33.2607L43.1574 33.264V33.4896H32.0401V33.4896Z" fill="white"/>
<path fill-rule="evenodd" clip-rule="evenodd" d="M45.4873 33.4896L59.3723 1.16241H52.6593C47.7235 1.23743 46.3325 7.27362 46.2482 13.6712C46.2368 14.5268 46.1682 15.6564 46.1286 16.9225C46.1286 16.9225 45.9042 16.9353 45.9042 16.9L45.9196 0.834782H63.5664L49.883 33.2614L55.9968 33.269C61.8967 33.0767 63.0681 28.809 63.2773 16.9246H63.5472V33.4822L45.4873 33.4896V33.4896Z" fill="white"/>
<path fill-rule="evenodd" clip-rule="evenodd" d="M121.755 1.1624H119.356L119.36 16.3425H122.344C125.697 16.3425 127.313 14.2476 127.547 9.00932C127.803 3.25779 124.923 1.1624 121.755 1.1624ZM133.774 33.8585C133.208 34.1393 132.528 34.249 131.732 34.249C128.397 34.2495 127.254 31.8011 127.389 25.3138V22.32C127.389 18.267 125.44 16.86 122.344 16.86H119.36L119.368 33.2837H123.214L123.217 33.466H112.102L112.092 33.2932L115.36 33.288L115.344 1.13296L112.102 1.13865V0.811023H122.566C127.65 0.811023 131.854 2.19893 131.861 8.82509C131.867 14.4259 127.324 16.5657 123.786 16.5657C129.019 16.5657 132.121 18.7584 131.516 25.4059L131.397 29.5511C131.397 31.9001 131.703 33.6353 133.046 33.6282C133.473 33.6258 133.887 33.5252 134.169 33.2132C134.471 32.8789 134.644 32.3621 134.683 32.0325C134.703 31.8614 134.777 31.4599 134.733 31.0155C134.733 31.0155 134.752 26.2302 134.733 26.2072C134.747 26.2255 134.992 26.2072 134.992 26.2072L134.986 29.1895C135.017 31.8604 135.014 32.1869 134.79 32.7199C134.642 33.0691 134.332 33.5817 133.774 33.8585" fill="white"/>
<path fill-rule="evenodd" clip-rule="evenodd" d="M75.4322 7.24416L71.0515 23.5971H79.3958L75.4322 7.24416ZM78.6451 33.4971V33.274L82.1975 33.2759L79.5934 23.9484H71.0548L69.2396 30.6415C68.8343 32.2996 68.6492 33.2645 68.6492 33.2645H72.1061V33.4971H65.0393V33.2645H68.2881C68.2881 33.2645 68.4666 32.4378 68.9089 30.6415L77.0884 0.00738232L86.4949 33.2725L89.7626 33.2763V33.4971H78.6451V33.4971Z" fill="white"/>
<path fill-rule="evenodd" clip-rule="evenodd" d="M98.3719 7.25319L93.9912 23.6061H102.336L98.3719 7.25319ZM101.585 33.5062V33.2733L105.137 33.2752L102.533 23.9572H93.9945L92.1793 30.6506C91.774 32.3087 91.5889 33.2733 91.5889 33.2733H95.0458V33.5062H87.979V33.2782L91.2277 33.2733C91.2277 33.2733 91.4063 32.4468 91.8486 30.6506L100.028 0.0164098L109.435 33.2768L112.702 33.2806V33.5062H101.585V33.5062Z" fill="white"/>
</svg>