<svg width="89" height="43" viewBox="0 0 89 43" fill="none" xmlns="http://www.w3.org/2000/svg">
<path fill-rule="evenodd" clip-rule="evenodd" d="M65.2145 23.125C65.2145 23.2204 65.2145 23.3157 65.2145 23.4101C65.2145 27.1183 65.2127 30.8264 65.2145 34.5345C65.2145 35.6847 65.0982 36.818 64.68 37.8952C63.6828 40.4781 61.8049 41.9971 59.0702 42.3161C56.0975 42.6627 53.6682 41.5125 51.6776 39.3368C51.0498 38.6507 50.5881 37.8489 50.1113 37.0568C47.3348 32.4506 44.5566 27.8462 41.7784 23.24C41.7482 23.1901 41.7162 23.1411 41.6718 23.0698C41.6114 23.1696 41.6345 23.2578 41.6345 23.338C41.631 26.8893 41.6434 30.4415 41.6221 33.9928C41.6123 35.5119 41.2989 36.9731 40.5468 38.3095C39.524 40.1288 37.9355 41.1783 35.9378 41.6497C35.1449 41.8377 34.3387 41.9036 33.5262 41.9036C29.6754 41.9054 25.8246 41.9107 21.9738 41.9018C19.1218 41.8956 16.3249 41.5035 13.6328 40.5333C7.54984 38.3407 3.40335 34.1782 1.21645 28.0752C0.306353 25.5351 -0.0789959 22.8996 0.0133456 20.2054C0.168728 15.6482 1.53343 11.5062 4.34541 7.89158C6.59357 5.00312 9.47125 2.9673 12.8817 1.68166C15.6608 0.633907 18.5509 0.19645 21.5094 0.176849C23.6732 0.162594 25.8361 0.167049 27.9999 0.154576C28.1971 0.153685 28.2299 0.22407 28.229 0.398696C28.2237 2.00241 28.2228 3.60701 28.2299 5.21072C28.2308 5.39871 28.1757 5.44682 27.992 5.44682C25.4783 5.44325 22.9655 5.42098 20.4528 5.45572C17.6728 5.49314 15.0313 6.11057 12.6055 7.51738C9.59467 9.26365 7.53829 11.8225 6.29701 15.0575C5.45972 17.2376 5.10456 19.5051 5.22976 21.8349C5.44285 25.813 6.83241 29.3011 9.65771 32.1495C11.4371 33.9421 13.5805 35.1261 15.9938 35.83C17.7696 36.3485 19.5862 36.557 21.4321 36.5543C25.4472 36.5481 29.4632 36.5525 33.4774 36.5525C35.0792 36.5525 36.3196 35.3302 36.3489 33.7211C36.3551 33.3558 36.3497 32.9896 36.3497 32.6243C36.3497 24.588 36.3498 16.5534 36.3506 8.51703C36.3506 8.25687 36.3418 7.99493 36.4101 7.73834C36.6277 6.92312 37.5138 6.67276 38.1255 7.25455C38.2339 7.3579 38.3244 7.47551 38.4035 7.60381C43.3455 15.6535 48.3426 23.6685 53.3264 31.6933C54.0776 32.9014 54.8278 34.1104 55.5808 35.3168C55.983 35.9618 56.5246 36.4331 57.2838 36.5908C58.3679 36.8154 59.349 36.1757 59.7432 35.0121C59.88 34.604 59.9182 34.1835 59.9182 33.7558C59.9182 27.063 59.9182 20.3702 59.9182 13.6774C59.9182 11.9089 59.9182 10.1412 59.9182 8.37269C59.9164 8.14818 59.9306 7.92633 59.9998 7.70983C60.2405 6.965 61.0769 6.72889 61.6664 7.24386C61.8067 7.36681 61.9195 7.51471 62.018 7.67419C67.6855 16.8964 73.4204 26.0759 79.1323 35.2696C79.3525 35.6224 79.6073 35.9351 79.9474 36.173C81.1629 37.0239 82.7043 36.5837 83.2948 35.2206C83.5008 34.7448 83.5461 34.2432 83.5461 33.7327C83.5461 27.7188 83.5461 21.7058 83.5461 15.691C83.5461 10.625 83.5461 5.55818 83.5461 0.492245C83.5461 0.162594 83.5461 0.162595 83.8648 0.162595C85.4275 0.162595 86.9884 0.165268 88.5503 0.159031C88.7269 0.15814 88.79 0.19645 88.79 0.389786C88.7847 11.9098 88.79 23.4297 88.7776 34.9506C88.7758 36.6345 88.3576 38.2177 87.3551 39.6005C86.1964 41.1971 84.6115 42.1174 82.6715 42.3152C79.2033 42.668 76.5254 41.2176 74.5383 38.4405C73.5465 37.0541 72.7501 35.536 71.8693 34.0766C69.7001 30.478 67.5372 26.8759 65.3734 23.2756C65.3388 23.2195 65.3024 23.166 65.266 23.1117C65.2473 23.1161 65.2305 23.1206 65.2145 23.125ZM53.1461 19.5666C50.9974 15.8442 48.854 12.1182 46.6964 8.4012C45.9106 7.04785 45.1826 5.66153 44.3053 4.36431C43.2567 2.81317 41.9595 1.51595 40.2316 0.748839C37.3957 -0.510964 34.7222 -0.200913 32.3427 1.82867C30.6281 3.29161 29.8477 5.24457 29.7686 7.47729C29.7296 8.54287 29.758 9.61111 29.758 10.6776C29.758 16.6238 29.7589 22.5709 29.758 28.5162C29.758 29.4454 29.1942 30.0094 28.2716 30.0094C26.1522 30.0103 24.0337 30.0139 21.9143 30.0085C20.2805 30.0049 18.6841 29.7813 17.1605 29.1612C15.4308 28.4574 14.02 27.3562 13.0344 25.7498C11.8704 23.8521 11.5152 21.7868 11.8748 19.6031C12.245 17.3552 13.2848 15.4691 15.0579 14.0249C16.7591 12.6386 18.7436 12.0345 20.9118 12.0176C23.2683 11.9989 25.6257 12.0087 27.9822 12.0158C28.1891 12.0158 28.2414 11.9579 28.2406 11.7547C28.2326 10.1804 28.2317 8.60612 28.2414 7.03182C28.2423 6.82244 28.1811 6.77522 27.9804 6.77611C25.631 6.78235 23.2816 6.78413 20.9323 6.77878C19.7016 6.77611 18.4817 6.8759 17.2794 7.14051C13.5805 7.95217 10.6424 9.90423 8.70588 13.1838C6.24729 17.3454 5.89124 21.7752 7.48768 26.3164C8.75028 29.9096 11.1956 32.4604 14.6912 33.975C16.7076 34.849 18.8297 35.2126 21.0104 35.2348C23.382 35.2589 25.7544 35.2428 28.1269 35.2437C29.9116 35.2437 31.6963 35.2455 33.4801 35.2428C34.1824 35.2419 34.7444 34.8366 34.9575 34.1942C35.0294 33.9777 35.0294 33.7558 35.0294 33.5313C35.0286 25.1974 35.0294 16.8634 35.0277 8.52861C35.0277 8.15441 35.0543 7.78378 35.1582 7.42205C35.4911 6.2656 36.4412 5.5368 37.5386 5.6259C38.4718 5.70163 39.1342 6.2068 39.6154 6.99172C45.2776 16.2157 50.9992 25.4041 56.7031 34.604C56.7777 34.7234 56.8593 34.8401 56.9543 34.9435C57.211 35.2268 57.527 35.3818 57.9115 35.2767C58.2844 35.1751 58.446 34.8758 58.5357 34.5256C58.6067 34.2468 58.5979 33.9634 58.5979 33.6801C58.5996 25.3088 58.5996 16.9374 58.5979 8.56692C58.5979 8.19272 58.6156 7.82209 58.7159 7.45769C59.0329 6.29946 59.9697 5.55818 61.0689 5.62322C62.0092 5.67935 62.6831 6.19789 63.1599 6.96678C65.0191 9.95948 66.8589 12.9655 68.7128 15.9609C72.561 22.1735 76.4127 28.3834 80.2626 34.5951C80.3736 34.7733 80.4917 34.9435 80.6559 35.0771C81.1816 35.5039 81.8475 35.3221 82.0846 34.6878C82.1867 34.4169 82.192 34.1336 82.192 33.8503C82.192 22.7099 82.1902 11.5712 82.1973 0.431662C82.1973 0.206252 82.1227 0.164377 81.9185 0.166159C80.3647 0.174177 78.8091 0.169722 77.2553 0.170613C76.9134 0.170613 76.9569 0.146557 76.9569 0.469972C76.9569 6.8269 76.9569 13.1838 76.9569 19.5407C76.9569 19.6254 76.9569 19.7091 76.9569 19.8143C76.8495 19.7483 76.8273 19.6655 76.7874 19.5969C74.0313 14.8579 71.2762 10.1181 68.5219 5.37821C67.7992 4.13267 66.9406 2.99492 65.8396 2.05764C64.4314 0.860208 62.8287 0.100228 60.9685 0.03608C58.4798 -0.0485602 56.4545 0.928811 54.9246 2.89603C53.7872 4.35808 53.3273 6.05444 53.3273 7.89069C53.3273 11.7556 53.3273 15.6206 53.3255 19.4846C53.3255 19.5782 53.3495 19.6762 53.2873 19.8009C53.2296 19.7056 53.1861 19.6361 53.1461 19.5666Z" fill="#EDEDED"/>
</svg>
