<svg width="200" height="90" xmlns="http://www.w3.org/2000/svg" id="Layer_1" data-name="Layer 1" viewBox="0 0 2436.08 438.81"><defs><style>.cls-1{opacity:0.7;}.cls-2{fill:white;}.cls-3,.cls-4{fill:none;stroke-width:0.23px;}.cls-3{stroke:#95ebc2;}.cls-4{stroke:#20d680;}.cls-5{fill:white;}</style></defs><g class="cls-1"><path class="cls-2" d="M3138,589.52S3125.17,611,3125.83,575l-5.33-28.79-13-21.08,3.71-21s8.5-1.55,64.26-4.73,158.76-8,347.8-14c0,0,37.8-3,101.12-6s152.17-5.81,254.27-5.49l63.8.51,169.15,1.67c140.47,1.56,328.94,4.11,520.92,8.23s387.49,9.89,542.12,17.45c77.32,3.73,144.43,8,195.78,12.24s87,8.65,101,11.51l-10.58-1.1c-6.92-.77-17-1.68-29.87-2.89-25.7-2.31-62.39-5.26-106.49-8.19-88.2-5.94-206.14-11.84-325.87-16.58-239.44-9.52-486-14.87-515.34-12.38,0,0,55.46,1.47,139.72,4.14s197.31,6.59,312.52,11.64,232.54,11.24,325.38,18.07c46.42,3.4,86.72,6.94,117.54,10.23,7.7.84,14.81,1.61,21.28,2.4s12.29,1.55,17.41,2.26c10.23,1.38,17.69,2.74,21.92,3.75,0,0-13.52-1.33-37.27-3.28s-57.74-4.48-98.73-7c-82-5.14-192-10.34-304.39-14.2-224.8-7.8-459.1-10.7-497.47-3.83,0,0,49.5,1.49,125.24,4.17s177.71,6.62,282.65,11.65S5122,535.57,5209.53,542.3s154.8,14,178.47,19.14l-24.27-2.31L5338,556.91c-9.58-.82-20-1.6-30.74-2.44-42.95-3.24-91-6-111.36-5.84q35.31,3.43,70.58,7.09-56.94-2.62-113.91-4.75l-65.7-5.33,7.68.65,20.34,1.8,29,2.67,33.56,3.31c46,4.69,93.5,10.4,99.58,13.26,0,0,20.37-.64.56-2.74-9.91-1.05-29.87-2.45-67.47-4.08s-92.84-3.42-173.31-4.91l-8.81-.6c-5.85-.39-14.57-1-26.08-1.63-23-1.35-57.18-3.21-101.74-5.12-89.11-3.86-219.84-7.89-386.16-9s-368.2.69-599.57,8.17S3422.13,568,3138,589.52Z" transform="translate(-3099.81 -157.04)"/><path class="cls-3" d="M3099.82,495.17l78.88-3c50.12-1.85,121.58-4.38,207-7.13,170.86-5.51,397.59-11.88,621-15.71l153.43,1.26c92.71.86,217.42,2.21,345.39,4.16s259.23,4.52,365,7.31,186.1,5.75,212.1,7.39l12.45.42,34.25,1.26c29.07,1.12,69.59,2.87,115.39,5.37s96.87,5.77,147.16,10.17c6.28.52,12.57,1.13,18.82,1.73s12.47,1.17,18.68,1.82c12.42,1.33,24.65,2.6,36.73,4.13,6,.74,12,1.46,17.93,2.31s11.74,1.6,17.57,2.51L5518.9,522l17,3.19" transform="translate(-3099.81 -157.04)"/><path class="cls-4" d="M4509,474.76c-39.23-2.19-206.17-4.14-363.26-4.89s-304.36-.61-304.36-.61c-117.61-.89-303,5.29-459,12-78,3.35-148.63,6.81-199.78,9.44l-60.57,3.21-22.23,1.24" transform="translate(-3099.81 -157.04)"/><path class="cls-4" d="M4528,504.28,4638.91,507c67.5,1.78,159.09,4.35,255.43,7.7s197.44,7.43,283.95,12c43.26,2.27,82.87,4.59,116.41,6.89s61,4.5,80,6.34" transform="translate(-3099.81 -157.04)"/><path class="cls-3" d="M4331.81,543.24l125.89,3.21c76,2,177.92,5,281.95,8.5s210.13,7.65,294.35,11.68,146.59,7.82,163.31,9.6" transform="translate(-3099.81 -157.04)"/></g><path class="cls-5" d="M3125.55,174.09H3286q.41,2.08.63,3.54a45.48,45.48,0,0,1,.2,5.19q0,22.45-25.77,22.45h-99.37v83.16h94.38V320h-94.38V452.24h-36.17Z" transform="translate(-3099.81 -157.04)"/><path class="cls-5" d="M3299.75,300.48a63.85,63.85,0,0,1-5.61-11.64,30.78,30.78,0,0,1-2.29-10q0-7.07,11.23-13.3t28.06-9.77a163,163,0,0,1,33.47-3.54q39.07,0,56.54,16.64T3438.61,325v81.91q0,11.64,1.25,17.67t4.78,8.31q3.53,2.3,14.35,2.29v16.63a64.55,64.55,0,0,1-20.38,2.91q-30.77,0-33.67-23.7-13.32,13.32-28.48,19.13T3341.74,456q-29.52,0-45.94-15t-16.42-43.24q0-33.25,28.06-51.35t78.79-19.74q12.46,0,17.46.41v-6.23q0-20.79-10.19-29.52t-33.05-8.73a101.1,101.1,0,0,0-29.31,3.95q-13.09,3.94-27.23,13.92Zm104.36,53.22h-12.06q-37.85,0-57.58,10.6t-19.75,31.39q0,15.39,8.94,23.49t26.4,8.11a71.44,71.44,0,0,0,26.4-5q12.67-5,20.16-12.47t7.49-13.72Z" transform="translate(-3099.81 -157.04)"/><path class="cls-5" d="M3502.22,256q4.58-.42,7.9-.42,23.28,0,26.2,21.2a77.23,77.23,0,0,1,27.44-18.08,92.44,92.44,0,0,1,34.5-6.45,76.89,76.89,0,0,1,32.43,6.86q15,6.87,22,18.92a78,78,0,0,1,28.06-18.92,93.41,93.41,0,0,1,35.55-6.86q24.94,0,40.75,11.44t20.37,32.22q2.89,11.22,2.91,38.25V452.24H3745V335.41c0-5.26-.07-10.33-.21-15.18a46.72,46.72,0,0,0-2.29-13.51q-2.91-11.64-12.26-17.05t-26.82-5.4a59.5,59.5,0,0,0-24.53,5.4q-12.06,5.41-18.71,13.31a244.23,244.23,0,0,1,1.67,30.76v118.5h-35.34V335.41q0-19.55-3.74-30.35-7.08-20.79-37.42-20.79a61.79,61.79,0,0,0-32.85,9.15q-15,9.15-15,19.54V452.24h-35.34Z" transform="translate(-3099.81 -157.04)"/><path class="cls-5" d="M3835.24,192.8q0-10.38,6.45-17.05a22.59,22.59,0,0,1,32,0q6.45,6.66,6.45,17.05a22.46,22.46,0,1,1-44.91,0Zm6.24,61.95a69.45,69.45,0,0,1,7.48-.42q27.86,0,27.86,28.28V414.82q0,13.31,4.16,17.67t15.8,4.36v15q-8.73,2.91-22.87,2.91-11.22,0-18.29-3.74A23.51,23.51,0,0,1,3845,439.14q-3.53-8.11-3.53-27.23Z" transform="translate(-3099.81 -157.04)"/><path class="cls-5" d="M3941.68,157.46a69.45,69.45,0,0,1,7.48-.42q27.86,0,27.86,28.28V413.15q0,11.66,1.66,15.8a10.8,10.8,0,0,0,5.82,6q4.15,1.88,12.47,1.87v15q-8.73,2.91-22.86,2.91-11.24,0-18.3-3.74a23.5,23.5,0,0,1-10.6-11.85q-3.54-8.11-3.53-27.23Z" transform="translate(-3099.81 -157.04)"/><path class="cls-5" d="M4100.08,451.82H4086l-67.36-192.91a53.2,53.2,0,0,1,18.3-3.33q19.53,0,27.44,23.7l45.73,141.77,45.73-138q7.48-27.43,29.52-27.44a30.93,30.93,0,0,1,15.39,3.74L4125,479.26q-9.15,26.61-18.3,39.91t-21.82,19.75q-12.69,6.45-30.15,6.45t-27.23-5q-9.77-5-9.77-13.72,0-10,9.56-22.87,13.3,10.81,27.44,10.81a29.1,29.1,0,0,0,22.66-10q8.94-10,16.84-34.09Z" transform="translate(-3099.81 -157.04)"/><path class="cls-5" d="M4253.5,174.92q3.75-1.65,11.64-1.66,5.82,0,9.36,2.49t7.69,10l86.06,178.78,86.9-177.95a32,32,0,0,1,8.11-10,17.63,17.63,0,0,1,11-3.33c5.54,0,9.57.56,12.06,1.66l20,277.32h-22.87l-16.63-239.48-86.06,173h-26.2L4273,219l-17.46,233.25h-23.7Z" transform="translate(-3099.81 -157.04)"/><path class="cls-5" d="M4595.67,206.94a19.18,19.18,0,0,1-5.19,13.51,17.15,17.15,0,0,1-25.37,0,20.19,20.19,0,0,1,0-27,17.15,17.15,0,0,1,25.37,0A19.23,19.23,0,0,1,4595.67,206.94Zm-.83,247.37q-9.57,0-15.8-3.74c-4.15-2.49-7.21-6.51-9.14-12.05s-2.91-14.56-2.91-27V258.08h1.24q22.45,0,22.45,21.61V412.74a72.08,72.08,0,0,0,1.67,17.05c1.1,4.43,3.12,7.69,6,9.77s7.41,3.39,13.51,3.95v8.73A67.17,67.17,0,0,1,4594.84,454.31Z" transform="translate(-3099.81 -157.04)"/><path class="cls-5" d="M4683.4,280.94q11.63-12,30.14-19.12a111.53,111.53,0,0,1,40.12-7.07q25.36,0,41.58,11.22t20.37,31.19q3.33,13.3,3.33,37V452.24h-24.12V334.16q0-20.37-3.74-31.18-7.9-26.61-47-26.61a87.36,87.36,0,0,0-32.43,6.44q-16.22,6.45-24.53,16a16.1,16.1,0,0,0-3.33,10.39v143H4659.7V258.08h1.66Q4683.4,258.08,4683.4,280.94Z" transform="translate(-3099.81 -157.04)"/><path class="cls-5" d="M5016,157.46a7.48,7.48,0,0,1,2.28-.42h1.88q9.14,0,14.34,5.2t5.2,15.59V452.24H5016V433.53q-8.33,11.22-23.49,18.08a81.25,81.25,0,0,1-33.89,6.86q-39.49,0-61.53-26t-22-74.22q0-33.25,11-56.12t31-35.14q19.95-12.26,44.9-12.26,17,.42,28.48,5t17.67,10a76,76,0,0,1,7.9,7.48ZM4900.84,353.7q0,41.16,16,62.78t46.77,21.62a64.84,64.84,0,0,0,35.34-10q15.79-10,17.05-21.2V298.82q-20.39-24.1-50.73-24.11-31.59,0-48,20.16T4900.84,353.7Z" transform="translate(-3099.81 -157.04)"/><path class="cls-5" d="M5253.82,428.54q0,6.24-10.81,13.93a82.08,82.08,0,0,1-25.36,11.84,110.06,110.06,0,0,1-30.35,4.16q-44.49,0-68-26.61t-23.49-77.33q0-31.18,11-53.63t31-34.3q20-11.85,44.9-11.85,36.18,0,56.13,22.66t20,61.32a193,193,0,0,1-1.25,21.21H5121.19q.82,38.25,17.88,58.41t49.06,20.17q19.13,0,34.09-6.86T5244.67,414Q5253.82,424.39,5253.82,428.54Zm-18.71-86.48q0-67.35-54.46-67.35-26.62,0-42.41,17.87t-16.63,49.48Z" transform="translate(-3099.81 -157.04)"/><path class="cls-5" d="M5443.41,157.46a7.48,7.48,0,0,1,2.28-.42h1.87q9.15,0,14.35,5.2t5.19,15.59V452.24h-23.69V433.53q-8.33,11.22-23.5,18.08a81.24,81.24,0,0,1-33.88,6.86q-39.51,0-61.53-26t-22-74.22q0-33.25,11-56.12t31-35.14q20-12.26,44.91-12.26,17,.42,28.48,5t17.67,10a78.3,78.3,0,0,1,7.9,7.48ZM5328.24,353.7q0,41.16,16,62.78T5391,438.1a64.86,64.86,0,0,0,35.34-10q15.8-10,17.05-21.2V298.82q-20.39-24.1-50.73-24.11-31.61,0-48,20.16T5328.24,353.7Z" transform="translate(-3099.81 -157.04)"/></svg>