<svg xmlns="http://www.w3.org/2000/svg" width="151" height="69" viewBox="0 0 151 69" fill="none">
<path fill-rule="evenodd" clip-rule="evenodd" d="M85.9166 15C85.897 18.9199 85.8774 22.8383 85.8608 26.7567C85.8562 27.6189 85.8713 27.6386 86.6354 27.2747C88.7916 26.2449 91.0823 26.0002 93.4031 26.2781C95.7783 26.562 97.7338 27.7609 99.286 29.5698C101.019 31.5902 101.996 33.9488 102.309 36.5867C102.504 38.2402 102.563 39.9027 102.368 41.5546C101.865 45.8203 100.252 49.4971 96.5877 52.0218C94.7017 53.3204 92.5968 54.0542 90.3303 54.3442C90.2322 54.3578 90.0781 54.2989 90.0676 54.4876C89.5149 54.4876 88.9608 54.4876 88.4051 54.4876C88.3809 54.4272 88.3553 54.4363 88.3311 54.4876C86.9963 54.4876 85.6614 54.4876 84.3296 54.4876C84.3266 54.2898 84.165 54.3608 84.0729 54.3502C82.0798 54.0995 80.1032 53.7523 78.1357 53.3461C77.814 53.2781 77.8291 53.1014 77.8322 52.8659C77.9273 47.0298 78.0028 41.1937 78.0119 35.3561C78.0179 31.6717 77.9877 27.9859 77.8926 24.303C77.8609 23.0528 77.885 21.7934 77.4698 20.5734C77.1195 19.5375 76.4973 18.8671 75.389 18.7055C75.2154 18.6783 75.0462 18.6285 74.8756 18.5877C74.2354 18.4292 74.0149 18.0109 74.2082 17.3661C74.2656 17.1744 74.4196 17.1608 74.557 17.1336C75.836 16.8739 77.1134 16.6142 78.3954 16.3711C80.5018 15.9694 82.6128 15.5844 84.7192 15.1752C84.8642 15.1465 85.0997 15.2718 85.1601 15.0015C85.2356 15.0015 85.3126 15.0015 85.3851 15.0015C85.3685 15.0347 85.3761 15.0649 85.4153 15.0604C85.4334 15.0589 85.447 15.0226 85.4621 15.0015C85.6146 15 85.7656 15 85.9166 15ZM85.8396 40.629C85.8713 40.629 85.9015 40.6275 85.9317 40.6275C85.9317 43.1567 85.9181 45.6859 85.9378 48.2121C85.9468 49.3793 86.0238 50.5496 86.0616 51.7183C86.0706 52.0399 86.2216 52.2015 86.5418 52.2211C86.6656 52.2287 86.7909 52.2498 86.9162 52.2634C88.5772 52.4537 89.9589 51.9327 91.0445 50.6523C91.7784 49.7901 92.3054 48.8071 92.7116 47.7576C94.1627 44.0053 94.3499 40.1186 93.8169 36.1836C93.6085 34.6494 93.1328 33.1681 92.2888 31.8454C91.2922 30.2856 89.9845 29.2256 87.9929 29.366C87.4009 29.4068 86.8271 29.517 86.2564 29.6786C85.9695 29.7586 85.8955 29.8915 85.8895 30.1738C85.8034 33.6604 85.8502 37.1454 85.8396 40.629ZM0 17.567C0.887871 17.6198 1.76819 17.7165 2.62133 17.9837C3.92747 18.3975 4.48315 19.4424 4.82591 20.6443C5.20794 21.9852 5.29703 23.3698 5.34988 24.75C5.57033 30.5468 5.52503 36.3467 5.42085 42.1465C5.38763 44.0174 5.32421 45.8928 5.05241 47.7516C4.95275 48.4341 4.81383 49.1106 4.53448 49.7478C4.07394 50.7987 3.31291 51.4782 2.16532 51.6911C1.67155 51.7832 1.18383 51.9071 0.687043 51.9795C0.434876 52.0143 0.252167 52.209 0 52.2211C0 52.3208 0 52.422 0 52.5216C0.00905991 52.5397 0.0196298 52.5563 0.0256697 52.576C0.0271797 52.5805 0.00905991 52.5911 0 52.5986C0 52.9263 0 53.254 0 53.5801C0.147979 53.8006 0.377496 53.7794 0.597954 53.7809C3.15134 53.793 5.70623 53.8096 8.26113 53.8096C11.9349 53.8096 15.6087 53.796 19.2825 53.793C19.6072 53.793 19.8352 53.7432 19.8638 53.343C19.9288 52.4597 19.8337 52.1471 19.3973 52.058C18.8567 51.9493 18.3146 51.824 17.7665 51.7681C16.1931 51.6096 15.269 50.7142 14.8265 49.248C14.7284 48.9233 14.6408 48.5957 14.5744 48.265C14.2965 46.8803 14.2467 45.4715 14.1682 44.0672C14.0217 41.4776 14.0006 38.8865 13.9945 36.2953C13.9945 36.0401 14.0866 35.9782 14.3252 35.9873C15.7205 36.0341 17.1157 36.0764 18.5049 36.2213C19.4033 36.3165 20.1266 36.7121 20.6808 37.4293C20.9918 37.828 21.244 38.2598 21.4539 38.7188C21.7921 39.4542 21.9778 40.2349 22.159 41.017C22.2073 41.2239 22.2904 41.3115 22.5078 41.31C22.834 41.3085 23.1617 41.3447 23.4878 41.3477C24.0631 41.3538 23.9997 41.4247 23.9997 40.86C24.0012 36.8465 24.0012 32.8329 24.0012 28.8179C24.0012 28.7424 23.9952 28.6654 24.0012 28.5929C24.0178 28.4132 23.9363 28.3453 23.7596 28.3513C23.4199 28.3634 23.0786 28.383 22.7404 28.3634C22.3614 28.3362 22.1922 28.4781 22.1092 28.8617C21.8903 29.8688 21.6094 30.8609 21.0477 31.7427C20.4286 32.7136 19.5921 33.3705 18.4112 33.4898C17.096 33.6242 15.7763 33.6468 14.4551 33.6649C14.0987 33.671 13.99 33.5864 13.99 33.2134C13.9794 28.9976 14.0731 24.7847 14.2074 20.5703C14.2256 20.0313 14.292 19.4937 14.3222 18.9546C14.3343 18.7448 14.4219 18.6859 14.6257 18.6874C16.5887 18.701 18.5517 18.701 20.5147 18.7131C22.5486 18.7266 24.2941 19.4394 25.712 20.9131C26.4776 21.7058 27.0529 22.636 27.5557 23.6114C28.0329 24.5401 28.3892 25.5201 28.7833 26.4834C29.0098 27.0391 29.1306 27.0904 29.7044 26.9425C30.0321 26.8564 30.3522 26.7432 30.6814 26.6661C30.8913 26.6163 30.9607 26.5151 30.9532 26.3007C30.8565 22.9184 30.8883 19.533 30.7373 16.1506C30.7237 15.8229 30.6255 15.6991 30.2692 15.6991C21.1594 15.6991 12.0497 15.687 2.93994 15.6825C1.95996 15.6825 0.97696 15.6478 0 15.755C0 16.359 0 16.963 0 17.567ZM37.6741 54.4861C37.6545 54.2747 37.4824 54.3578 37.3751 54.3396C34.6859 53.9017 32.362 52.7677 30.4806 50.7685C28.8483 49.0335 27.903 46.9498 27.3836 44.6591C26.6407 41.3855 26.6195 38.0967 27.6841 34.9061C29.2967 30.0727 32.6051 27.0225 37.6681 26.0486C40.383 25.5246 43.0829 25.6967 45.6906 26.6541C49.2376 27.9602 51.4724 30.5408 52.6924 34.0575C53.5592 36.5565 53.7253 39.1311 53.5486 41.7569C53.384 44.2167 52.6849 46.4968 51.3818 48.5775C49.4339 51.6911 46.5921 53.5167 43.0225 54.2566C42.8262 54.2974 42.6254 54.3155 42.4291 54.3563C42.3641 54.3698 42.2388 54.3396 42.2796 54.4861C41.8266 54.4861 41.3736 54.4861 40.9206 54.4861C40.8949 54.4242 40.8692 54.4333 40.8451 54.4861C39.7881 54.4861 38.7296 54.4861 37.6741 54.4861ZM45.2135 40.5927C45.2422 39.6837 45.1833 38.7792 45.135 37.8763C45.0398 36.0915 44.833 34.3218 44.3181 32.6019C43.8802 31.1372 43.2369 29.7933 42.0908 28.7318C41.286 27.9874 40.3498 27.7699 39.2974 27.9768C38.2373 28.1837 37.5533 28.8828 37.0414 29.7707C36.0192 31.5434 35.6991 33.5169 35.4937 35.5086C35.3034 37.3614 35.317 39.2262 35.3352 41.088C35.3578 43.359 35.5798 45.6029 36.2396 47.7878C36.6337 49.0955 37.1335 50.3548 38.0984 51.3635C39.4438 52.7677 41.3298 52.7889 42.722 51.4435C43.7533 50.4454 44.2033 49.1604 44.534 47.821C45.1229 45.4458 45.1667 43.0163 45.2135 40.5927ZM115.814 54.4861C115.867 54.3125 115.719 54.3562 115.648 54.3442C109.811 53.4654 105.676 49.1483 104.764 43.2397C104.163 39.3364 104.58 35.5101 106.664 32.0175C108.672 28.6518 111.636 26.6812 115.485 26.0078C117.395 25.6741 119.295 25.7013 121.169 26.1965C123.713 26.8715 125.637 28.3875 126.934 30.6706C128.344 33.1485 128.836 35.8544 128.82 38.6766C128.818 38.968 128.711 39.0224 128.444 39.0224C123.349 39.0374 118.254 39.0631 113.161 39.0752C112.825 39.0767 112.716 39.1431 112.729 39.504C112.808 41.6059 113.069 43.6731 114.049 45.5636C115.423 48.2061 117.512 49.8897 120.563 50.1902C122.196 50.3503 123.801 50.2702 125.344 49.6511C126.013 49.3824 126.609 48.9822 127.222 48.6153C127.514 48.4416 127.764 48.3405 128.042 48.6742C128.438 49.1483 128.515 49.3914 128.246 49.7689C127.707 50.5224 127.014 51.1249 126.3 51.7062C124.498 53.1679 122.416 53.9757 120.145 54.3457C120.071 54.3578 119.928 54.314 119.968 54.4846C118.987 54.4846 118.005 54.4846 117.025 54.4846C116.998 54.4166 116.976 54.4529 116.948 54.4846C116.773 54.4846 116.598 54.4846 116.42 54.4846C116.396 54.4665 116.373 54.4514 116.349 54.4333C116.346 54.4514 116.346 54.4665 116.343 54.4846C116.169 54.4861 115.991 54.4861 115.814 54.4861ZM116.684 36.6864C116.684 36.6547 116.684 36.623 116.684 36.5913C117.865 36.5913 119.046 36.5762 120.228 36.5988C120.592 36.6064 120.684 36.4795 120.642 36.1458C120.601 35.8091 120.589 35.4709 120.571 35.1311C120.503 33.7117 120.344 32.3029 119.961 30.9319C119.752 30.192 119.482 29.4747 119.011 28.8541C118.229 27.8198 117.083 27.6159 115.98 28.3075C115.503 28.605 115.118 29.0021 114.816 29.4702C113.439 31.6023 112.977 34.0001 112.791 36.478C112.773 36.7287 112.888 36.7634 113.102 36.7589C114.295 36.7257 115.491 36.7649 116.684 36.6864ZM142.09 54.4861C142.147 54.2656 142.336 54.3638 142.464 54.3411C145.265 53.8474 147.752 52.7904 149.472 50.3895C150.159 49.4292 150.598 48.3541 150.851 47.205C150.87 47.1189 150.864 47.0283 150.946 46.9709C150.949 46.9679 150.964 46.9785 150.973 46.986C150.982 46.9936 150.991 47.0041 151 47.0132C151 45.9562 151 44.9007 151 43.8407C150.977 43.8256 150.941 43.8135 150.938 43.7969C150.935 43.7592 150.965 43.7501 151 43.7667C151 43.6897 151 43.6142 151 43.5402C150.879 43.4481 150.882 43.4481 150.847 43.2986C150.607 42.1978 150.132 41.2118 149.383 40.3662C148.274 39.1114 146.829 38.3504 145.341 37.6603C143.873 36.9809 142.349 36.4222 140.936 35.6204C140.11 35.1523 139.335 34.6223 138.731 33.8748C138.038 33.0187 138.028 32.0341 138.162 31.0104C138.369 29.4279 139.849 28.0825 141.445 28.0644C143.31 28.0433 144.795 28.8164 145.942 30.2644C146.802 31.3531 147.343 32.6094 147.832 33.8914C148.24 34.956 148.294 34.9696 149.363 34.5739C149.584 34.4924 149.644 34.3852 149.638 34.1647C149.578 32.0024 149.517 29.8401 149.479 27.6763C149.473 27.329 149.336 27.181 149.022 27.0587C147.344 26.4079 145.594 26.1135 143.817 25.9187C141.775 25.6952 139.754 25.7451 137.753 26.2524C133.898 27.2294 131.103 30.3656 130.873 33.9171C130.674 37.0126 131.727 39.4814 134.396 41.1711C135.55 41.9004 136.832 42.3549 138.088 42.8638C139.369 43.3832 140.651 43.8981 141.798 44.6848C142.399 45.0955 142.916 45.5878 143.202 46.2748C144.081 48.4069 142.819 51.0237 140.569 51.528C138.192 52.0626 136.148 51.3846 134.543 49.5092C133.448 48.2302 132.731 46.7414 132.106 45.1997C131.76 44.3481 131.681 44.3118 130.787 44.5972C130.727 44.6168 130.67 44.6455 130.611 44.6621C130.399 44.7241 130.322 44.8524 130.327 45.0789C130.398 47.4813 130.454 49.8837 130.52 52.2845C130.537 52.9112 130.546 52.9202 131.153 53.1347C132.889 53.7477 134.692 54.0693 136.506 54.3427C136.614 54.3593 136.783 54.2823 136.806 54.4891C138.565 54.4861 140.329 54.4861 142.09 54.4861ZM85.3881 15C85.3715 15.0332 85.3791 15.0634 85.4183 15.0589C85.4365 15.0574 85.45 15.0211 85.4651 15C85.4395 15 85.4138 15 85.3881 15ZM150.998 43.7652C150.964 43.7471 150.934 43.7562 150.937 43.7954C150.94 43.8135 150.976 43.8256 150.998 43.8392C150.998 43.8166 150.998 43.7894 150.998 43.7652ZM0 52.5986C0.00905991 52.5911 0.0271797 52.5805 0.0256697 52.576C0.0196298 52.5579 0.00754992 52.5397 0 52.5216C0 52.5488 0 52.573 0 52.5986ZM40.9206 54.4861C40.8949 54.4242 40.8692 54.4333 40.8451 54.4861C40.8692 54.4861 40.8949 54.4861 40.9206 54.4861ZM88.4081 54.4861C88.3839 54.4257 88.3583 54.4348 88.3341 54.4861C88.3583 54.4861 88.3839 54.4861 88.4081 54.4861ZM116.42 54.4861C116.396 54.468 116.373 54.4529 116.349 54.4348C116.346 54.4529 116.346 54.468 116.343 54.4861C116.368 54.4861 116.394 54.4861 116.42 54.4861ZM117.024 54.4861C116.997 54.4182 116.974 54.4544 116.947 54.4861C116.974 54.4861 116.997 54.4861 117.024 54.4861ZM65.2585 31.3607C65.3219 29.6786 65.3839 27.9949 65.4473 26.3128C65.4654 25.8326 65.4367 25.8009 64.9837 25.8855C61.4186 26.5438 57.8656 27.2686 54.3172 28.0025C53.529 28.164 53.4973 28.2214 53.5305 29.0293C53.532 29.0549 53.532 29.0791 53.532 29.1048C53.5365 29.3433 53.6513 29.4626 53.8944 29.5019C54.29 29.5638 54.6811 29.6635 55.0767 29.7224C56.0974 29.8779 56.6652 30.5075 56.934 31.4588C57.2012 32.3996 57.2526 33.369 57.2858 34.3323C57.396 37.6015 57.4066 40.8721 57.3341 44.1427C57.2964 45.9018 57.2888 47.6625 57.0804 49.4141C56.9189 50.7685 56.2122 51.6156 54.9348 51.895C54.5799 51.9735 54.2175 52.0233 53.8627 52.0988C53.7373 52.1245 53.5878 52.1305 53.5878 52.3359C53.5878 52.662 53.5531 52.9882 53.5486 53.3144C53.5456 53.5982 53.6362 53.796 53.988 53.7613C54.1858 53.7417 54.3897 53.7809 54.5905 53.7809C58.0499 53.79 61.5092 53.7991 64.9686 53.8021C66.4786 53.8036 67.9886 53.787 69.4971 53.7945C69.7779 53.796 69.8806 53.7115 69.8745 53.4352C69.867 53.109 69.8912 52.7813 69.9017 52.4552C69.9078 52.2166 69.8157 52.0973 69.5529 52.0777C69.0275 52.0429 68.5035 51.975 67.9795 51.9131C67.2547 51.83 66.5601 51.6806 66.1117 51.0131C65.855 50.6326 65.7055 50.2098 65.6134 49.7629C65.334 48.4145 65.3084 47.0404 65.2555 45.6753C65.1136 42.0544 65.1347 38.4319 65.2329 34.8095C65.251 34.1481 65.5349 33.7268 66.1086 33.446C67.4208 32.7997 68.7934 32.6563 70.2188 32.9311C71.1641 33.1138 72.0233 33.5366 72.89 33.9352C73.201 34.0802 73.3747 34.0485 73.5151 33.6981C74.3849 31.5192 75.2259 29.3282 75.9945 27.1116C76.1667 26.6148 76.1108 26.488 75.6487 26.2509C75.5491 26.1996 75.4464 26.1482 75.3392 26.112C73.7175 25.6061 72.0988 25.5714 70.5042 26.2071C68.5563 26.9832 67.1505 28.38 66.0709 30.1406C65.8187 30.5528 65.5817 30.9756 65.337 31.3939C65.3084 31.3803 65.2827 31.3698 65.2585 31.3607Z" fill="white"/>
</svg>