<svg xmlns="http://www.w3.org/2000/svg" width="240" height="69" viewBox="0 0 240 69" fill="none">
<path fill-rule="evenodd" clip-rule="evenodd" d="M223.314 11.3947C223.499 11.1899 223.816 11.1741 224.02 11.3594C228.313 15.2433 230.809 20.4643 232.191 25.3824C233.573 30.2975 233.854 34.9508 233.684 37.7551C232.868 58.4861 215.721 66.7018 207.273 68.2223C207.002 68.2712 206.742 68.0905 206.693 67.8187C206.644 67.547 206.825 67.287 207.096 67.2381C215.315 65.7587 231.898 57.7756 232.685 37.7106L232.686 37.6999L232.686 37.6999C232.849 35.0036 232.58 30.4597 231.229 25.653C229.877 20.846 227.457 15.8171 223.349 12.1009C223.145 11.9157 223.129 11.5995 223.314 11.3947Z" fill="white"/>
<path d="M223.819 62.8711C221.48 62.8711 219.431 63.6866 218.526 64.7346C218.482 64.7858 218.47 64.8569 218.495 64.9198C219.066 66.3531 221.376 67.0956 223.819 67.0956C225.717 67.0956 227.945 65.4152 229.022 63.9617C229.104 63.8505 229.043 63.6947 228.909 63.6605C227.091 63.1972 226.106 62.8711 223.819 62.8711Z" fill="white"/>
<path d="M219.322 58.3006C219.322 60.2584 218.531 61.9549 217.027 62.4999C216.957 62.5253 216.879 62.5061 216.828 62.4517C216.128 61.7085 215.685 60.6538 215.685 58.7302C215.685 56.8196 216.727 55.0979 217.547 54.2213C217.612 54.1516 217.717 54.1413 217.786 54.2069C218.332 54.723 219.322 56.4474 219.322 58.3006Z" fill="white"/>
<path d="M223.847 53.6827C224.588 56.1566 223.485 57.6962 222.657 58.3445C222.586 58.4001 222.487 58.3961 222.421 58.3348C221.941 57.8909 221.097 56.8468 220.584 55.1368C220.054 53.3659 220.883 51.4003 221.43 50.3511C221.474 50.2666 221.572 50.2258 221.66 50.2637C222.235 50.5131 223.136 51.3085 223.847 53.6827Z" fill="white"/>
<path d="M227.741 48.6153C228.697 50.8916 227.641 52.709 226.903 53.4354C226.839 53.4987 226.74 53.5051 226.668 53.4506C226.152 53.0593 225.161 52.0508 224.501 50.4784C223.817 48.8497 224.061 46.6602 224.443 45.5819C224.475 45.4921 224.568 45.4417 224.66 45.4682C225.323 45.6604 226.819 46.42 227.741 48.6153Z" fill="white"/>
<path d="M229.884 41.4753C231.188 43.5779 230.577 45.7658 229.976 46.6221C229.924 46.6959 229.827 46.7176 229.749 46.6731C229.156 46.3365 227.874 45.2848 226.971 43.8292C226.037 42.3245 226.225 39.9587 226.46 38.8172C226.48 38.7239 226.564 38.6594 226.658 38.6759C227.302 38.7889 228.629 39.4543 229.884 41.4753Z" fill="white"/>
<path d="M230.749 35.1229C232.461 36.7771 232.219 38.7879 231.841 39.7158C231.807 39.7993 231.718 39.8442 231.631 39.8223C231.022 39.6696 229.763 39.1509 228.582 38.0094C227.357 36.8252 226.973 34.5756 226.923 33.4512C226.919 33.356 226.985 33.2728 227.08 33.2662C227.712 33.2223 229.106 33.5345 230.749 35.1229Z" fill="white"/>
<path d="M229.942 28.382C231.216 29.3751 231.816 31.125 231.876 32.3497C231.881 32.46 231.791 32.5497 231.681 32.5451C230.855 32.5105 229.996 32.2447 228.62 31.3223C227.24 30.3973 226.713 28.6571 226.48 27.5838C226.454 27.4606 226.549 27.3454 226.675 27.3429C227.516 27.3262 228.531 27.2817 229.942 28.382Z" fill="white"/>
<path d="M227.953 22.5687C230.061 23.3572 230.614 25.1888 230.64 26.1407C230.642 26.2308 230.579 26.3074 230.49 26.322C229.899 26.4186 228.613 26.4413 227.161 25.8981C225.652 25.3336 224.47 23.531 223.999 22.5703C223.957 22.4847 223.984 22.3819 224.069 22.3385C224.607 22.0628 225.933 21.8132 227.953 22.5687Z" fill="white"/>
<path d="M225.208 17.5368C227.424 17.9261 228.303 19.6255 228.502 20.5566C228.521 20.6448 228.473 20.7318 228.388 20.7624C227.825 20.9655 226.565 21.2232 225.038 20.955C223.451 20.6763 221.959 19.1206 221.32 18.2624C221.263 18.1859 221.271 18.0798 221.347 18.0215C221.825 17.6521 223.084 17.1638 225.208 17.5368Z" fill="white"/>
<path d="M221.452 12.966C223.701 13.0425 224.809 14.6027 225.136 15.4969C225.167 15.5816 225.131 15.6745 225.052 15.7166C224.522 15.9962 223.311 16.4271 221.761 16.3744C220.151 16.3197 218.457 14.9872 217.704 14.2265C217.637 14.1587 217.63 14.0525 217.697 13.9842C218.119 13.5517 219.297 12.8927 221.452 12.966Z" fill="white"/>
<path d="M227.931 9.06326C228.858 11.1138 227.949 12.7976 227.292 13.4868C227.23 13.5521 227.131 13.5611 227.058 13.5082C226.573 13.1574 225.65 12.2616 225.011 10.849C224.347 9.38075 224.792 7.27157 225.141 6.26009C225.172 6.16997 225.265 6.11706 225.355 6.14657C225.93 6.33363 227.043 7.09834 227.931 9.06326Z" fill="white"/>
<path d="M213.905 10.1128C217.97 7.99598 220.601 9.42797 221.553 10.56C221.628 10.6494 221.598 10.7828 221.496 10.8408C217.791 12.9608 214.972 11.5423 213.852 10.4107C213.762 10.3203 213.792 10.1716 213.905 10.1128Z" fill="white"/>
<path d="M219.609 1.9697C223.509 4.87568 223.344 8.04942 222.698 9.46991C222.65 9.5762 222.517 9.60678 222.42 9.54081C218.683 6.98075 218.749 3.63158 219.317 2.05083C219.36 1.93113 219.507 1.89372 219.609 1.9697Z" fill="white"/>
<path d="M211.877 3.6692C216.455 3.44411 218.247 5.8443 218.639 7.27028C218.67 7.38286 218.587 7.49143 218.47 7.50178C214.219 7.88022 212.249 5.41355 211.705 3.91758C211.661 3.79808 211.75 3.67545 211.877 3.6692Z" fill="white"/>
<path d="M229.185 56.7302C227.228 57.1215 225.161 58.9243 224.707 60.0982C224.688 60.1477 224.692 60.2025 224.72 60.2478C225.296 61.1885 227.62 61.4341 229.685 60.7302C231.221 60.2064 232.951 58.5962 233.856 57.3732C233.934 57.2673 233.885 57.1181 233.76 57.0774C232.705 56.7346 231.033 56.3606 229.185 56.7302Z" fill="white"/>
<path d="M233.171 50.0967C231.317 50.7262 230.19 52.703 229.723 54.1375C229.691 54.2366 229.743 54.3426 229.841 54.3764C231.05 54.7899 232.805 54.8448 234.573 53.6525C235.937 52.7323 237.211 50.8789 237.949 49.7319C238.031 49.6044 237.946 49.4382 237.794 49.4346C236.794 49.4106 234.885 49.5149 233.171 50.0967Z" fill="white"/>
<path d="M234.908 43.2964C233.269 44.3675 232.985 46.352 232.639 47.9496C232.615 48.0587 232.685 48.1669 232.795 48.1858C234.472 48.4731 236.052 47.9061 237.48 46.2972C238.654 44.9734 239.323 43.2318 239.519 41.6985C239.536 41.5667 239.419 41.4597 239.289 41.4888C238.333 41.7029 236.459 42.2826 234.908 43.2964Z" fill="white"/>
<path d="M234.413 40.2081L234.413 40.2178C234.413 40.3505 234.54 40.4463 234.666 40.4048C236.344 39.8516 237.938 38.5417 238.681 37.1679C239.413 35.8118 239.794 33.7717 239.608 32.0573C239.592 31.9088 239.422 31.8374 239.301 31.9249C237.929 32.917 236.731 33.815 235.62 35.4088C234.402 37.1547 234.408 38.7518 234.413 40.2081Z" fill="white"/>
<path d="M238.032 28.8411C237.655 30.7256 235.848 32.1465 234.665 32.862C234.557 32.9272 234.417 32.874 234.383 32.7527C233.956 31.2615 233.98 29.1747 234.455 27.7505C234.811 26.68 236.322 25.0996 237.471 23.9448C237.572 23.843 237.742 23.8789 237.785 24.0161C238.092 25.0085 238.393 27.0376 238.032 28.8411Z" fill="white"/>
<path d="M236.075 20.8733C236.139 22.691 234.511 24.7654 233.543 25.7295C233.453 25.8185 233.306 25.7988 233.244 25.6888C232.533 24.427 232.149 22.6987 232.276 21.2857C232.371 20.2225 233.541 17.9986 234.364 16.6285C234.438 16.5054 234.612 16.5002 234.688 16.6221C235.208 17.4541 236.014 19.1406 236.075 20.8733Z" fill="white"/>
<path d="M232.6 14.7382C232.964 16.5616 231.971 18.2465 231.288 19.035C231.198 19.1382 231.036 19.1129 230.972 18.9922C230.594 18.2781 229.928 17.0966 229.6 15.7382C229.194 14.0598 229.681 12.2089 230.02 11.017C230.058 10.8822 230.219 10.8291 230.325 10.921C231.047 11.5481 232.24 12.9414 232.6 14.7382Z" fill="white"/>
<path fill-rule="evenodd" clip-rule="evenodd" d="M16.6861 11.3947C16.5008 11.1899 16.1847 11.1741 15.9799 11.3594C11.6872 15.2433 9.19127 20.4643 7.80899 25.3824C6.42754 30.2975 6.14669 34.9508 6.31594 37.7551C7.13178 58.4861 24.2795 66.7018 32.7268 68.2223C32.9985 68.2712 33.2585 68.0905 33.3074 67.8187C33.3564 67.547 33.1757 67.287 32.9039 67.2381C24.6852 65.7587 8.10182 57.7756 7.31496 37.7106L7.31454 37.6999L7.31443 37.6999C7.15102 35.0036 7.42069 30.4597 8.77169 25.653C10.1228 20.846 12.5435 15.8171 16.6508 12.1009C16.8556 11.9157 16.8714 11.5995 16.6861 11.3947Z" fill="white"/>
<path d="M16.1817 62.8711C18.5201 62.8711 20.5696 63.6866 21.4738 64.7346C21.518 64.7858 21.5306 64.8569 21.5056 64.9198C20.9347 66.3531 18.6245 67.0956 16.1817 67.0956C14.2835 67.0956 12.0552 65.4152 10.9784 63.9617C10.8961 63.8505 10.9572 63.6947 11.0912 63.6605C12.9095 63.1972 13.8947 62.8711 16.1817 62.8711Z" fill="white"/>
<path d="M20.6781 58.3006C20.6781 60.2584 21.4688 61.9549 22.973 62.4999C23.0431 62.5253 23.1215 62.5061 23.1726 62.4517C23.872 61.7085 24.3154 60.6538 24.3154 58.7302C24.3154 56.8196 23.2733 55.0979 22.4537 54.2213C22.3886 54.1516 22.2834 54.1413 22.2141 54.2069C21.6686 54.723 20.6781 56.4474 20.6781 58.3006Z" fill="white"/>
<path d="M16.1529 53.6827C15.4118 56.1566 16.5149 57.6962 17.3431 58.3445C17.4141 58.4001 17.5133 58.3961 17.5795 58.3348C18.0596 57.8909 18.9036 56.8468 19.4159 55.1368C19.9464 53.3659 19.1177 51.4003 18.5702 50.3511C18.5261 50.2666 18.4278 50.2258 18.3404 50.2637C17.7656 50.5131 16.8641 51.3085 16.1529 53.6827Z" fill="white"/>
<path d="M12.2591 48.6153C11.3034 50.8916 12.3593 52.709 13.0974 53.4354C13.1617 53.4987 13.2606 53.5051 13.3324 53.4506C13.8485 53.0593 14.839 52.0508 15.4991 50.4784C16.1829 48.8497 15.939 46.6602 15.5571 45.5819C15.5252 45.4921 15.4322 45.4417 15.3407 45.4682C14.677 45.6604 13.1808 46.42 12.2591 48.6153Z" fill="white"/>
<path d="M10.1167 41.4753C8.812 43.5779 9.42307 45.7658 10.0247 46.6221C10.0765 46.6959 10.1732 46.7176 10.2516 46.6731C10.8442 46.3365 12.1259 45.2848 13.0291 43.8292C13.9628 42.3245 13.7755 39.9587 13.5398 38.8172C13.5205 38.7239 13.4364 38.6594 13.3425 38.6759C12.6979 38.7889 11.3708 39.4543 10.1167 41.4753Z" fill="white"/>
<path d="M9.25106 35.1229C7.5396 36.7771 7.78157 38.7879 8.1593 39.7158C8.1933 39.7993 8.2818 39.8442 8.36929 39.8223C8.97825 39.6696 10.2374 39.1509 11.4184 38.0094C12.6436 36.8252 13.027 34.5756 13.0768 33.4512C13.081 33.356 13.015 33.2728 12.9199 33.2662C12.288 33.2223 10.8944 33.5345 9.25106 35.1229Z" fill="white"/>
<path d="M10.0581 28.382C8.78423 29.3751 8.18425 31.125 8.12448 32.3497C8.1191 32.46 8.20905 32.5497 8.31941 32.5451C9.14509 32.5105 10.0039 32.2447 11.3803 31.3223C12.7606 30.3973 13.2877 28.6571 13.5199 27.5838C13.5465 27.4606 13.4517 27.3454 13.3257 27.3429C12.4838 27.3262 11.4693 27.2817 10.0581 28.382Z" fill="white"/>
<path d="M12.0471 22.5687C9.93935 23.3572 9.38619 25.1888 9.36069 26.1407C9.35827 26.2308 9.42171 26.3074 9.51072 26.322C10.1015 26.4186 11.3874 26.4413 12.8394 25.8981C14.3485 25.3336 15.5305 23.531 16.0017 22.5703C16.0437 22.4847 16.0161 22.3819 15.9312 22.3385C15.3934 22.0628 14.0668 21.8132 12.0471 22.5687Z" fill="white"/>
<path d="M14.7927 17.5368C12.5762 17.9261 11.6971 19.6255 11.4978 20.5566C11.4789 20.6448 11.5272 20.7318 11.6121 20.7624C12.1752 20.9655 13.4352 21.2232 14.9621 20.955C16.549 20.6763 18.0411 19.1206 18.6802 18.2624C18.7371 18.1859 18.7288 18.0798 18.6534 18.0215C18.175 17.6521 16.9166 17.1638 14.7927 17.5368Z" fill="white"/>
<path d="M18.5479 12.966C16.2988 13.0425 15.1913 14.6027 14.8641 15.4969C14.8331 15.5816 14.8689 15.6745 14.9486 15.7166C15.4779 15.9962 16.6897 16.4271 18.239 16.3744C19.8494 16.3197 21.5437 14.9872 22.2962 14.2265C22.3633 14.1587 22.3698 14.0525 22.3032 13.9842C21.8811 13.5517 20.703 12.8927 18.5479 12.966Z" fill="white"/>
<path d="M12.0695 9.06326C11.1424 11.1138 12.0513 12.7976 12.7083 13.4868C12.7705 13.5521 12.8696 13.5611 12.9426 13.5082C13.4277 13.1574 14.3504 12.2616 14.989 10.849C15.6528 9.38075 15.2079 7.27157 14.859 6.26009C14.8279 6.16997 14.7355 6.11706 14.6448 6.14657C14.0701 6.33363 12.9577 7.09834 12.0695 9.06326Z" fill="white"/>
<path d="M26.0953 10.1128C22.0301 7.99598 19.399 9.42797 18.4476 10.56C18.3725 10.6494 18.4027 10.7828 18.5041 10.8408C22.2091 12.9608 25.0286 11.5423 26.1486 10.4107C26.238 10.3203 26.2081 10.1716 26.0953 10.1128Z" fill="white"/>
<path d="M20.3914 1.9697C16.4908 4.87568 16.6566 8.04942 17.3019 9.46991C17.3502 9.5762 17.4836 9.60678 17.5799 9.54081C21.3171 6.98075 21.2509 3.63158 20.6834 2.05083C20.6405 1.93113 20.4934 1.89372 20.3914 1.9697Z" fill="white"/>
<path d="M28.1228 3.6692C23.5451 3.44411 21.7528 5.8443 21.3613 7.27028C21.3303 7.38286 21.4136 7.49143 21.5298 7.50178C25.7817 7.88022 27.7508 5.41355 28.2957 3.91758C28.3392 3.79808 28.2499 3.67545 28.1228 3.6692Z" fill="white"/>
<path d="M10.8154 56.7302C12.7719 57.1215 14.8389 58.9243 15.293 60.0982C15.3121 60.1477 15.3084 60.2025 15.2807 60.2478C14.7038 61.1885 12.3799 61.4341 10.3154 60.7302C8.77933 60.2064 7.04941 58.5962 6.14463 57.3732C6.06627 57.2673 6.11501 57.1181 6.2403 57.0774C7.29515 56.7346 8.96719 56.3606 10.8154 56.7302Z" fill="white"/>
<path d="M6.82893 50.0967C8.6833 50.7262 9.81027 52.703 10.2771 54.1375C10.3094 54.2366 10.2574 54.3426 10.1588 54.3764C8.95064 54.7899 7.19492 54.8448 5.42759 53.6525C4.06355 52.7323 2.78931 50.8789 2.05145 49.7319C1.96941 49.6044 2.05443 49.4382 2.20603 49.4346C3.20669 49.4106 5.11516 49.5149 6.82893 50.0967Z" fill="white"/>
<path d="M5.09234 43.2964C6.73126 44.3675 7.01496 46.352 7.36117 47.9496C7.38481 48.0587 7.31544 48.1669 7.20539 48.1858C5.52836 48.4731 3.94798 47.9061 2.5204 46.2972C1.3458 44.9734 0.677735 43.2318 0.481041 41.6985C0.464135 41.5667 0.581419 41.4597 0.711077 41.4888C1.66729 41.7029 3.541 42.2826 5.09234 43.2964Z" fill="white"/>
<path d="M5.58726 40.2081L5.58723 40.2178C5.58678 40.3505 5.46001 40.4463 5.33406 40.4048C3.65576 39.8516 2.06179 38.5417 1.31949 37.1679C0.586718 35.8118 0.205567 33.7717 0.391881 32.0573C0.408017 31.9088 0.57808 31.8374 0.699099 31.9249C2.07078 32.917 3.26895 33.815 4.3802 35.4088C5.59759 37.1547 5.59219 38.7518 5.58726 40.2081Z" fill="white"/>
<path d="M1.96859 28.8411C2.3455 30.7256 4.15246 32.1465 5.33588 32.862C5.44388 32.9272 5.58304 32.874 5.61777 32.7527C6.0446 31.2615 6.0207 29.1747 5.5459 27.7505C5.18905 26.68 3.67846 25.0996 2.52943 23.9448C2.42816 23.843 2.25799 23.8789 2.21556 24.0161C1.90858 25.0085 1.6079 27.0376 1.96859 28.8411Z" fill="white"/>
<path d="M3.92503 20.8733C3.86129 22.691 5.48921 24.7654 6.45746 25.7295C6.5469 25.8185 6.69464 25.7988 6.75655 25.6888C7.46684 24.427 7.8513 22.6987 7.72473 21.2857C7.6295 20.2225 6.45884 17.9986 5.63603 16.6285C5.56211 16.5054 5.3878 16.5002 5.3118 16.6221C4.79271 17.4541 3.9858 19.1406 3.92503 20.8733Z" fill="white"/>
<path d="M7.40063 14.7382C7.03594 16.5616 8.02895 18.2465 8.71235 19.035C8.80175 19.1382 8.96416 19.1129 9.02805 18.9922C9.40628 18.2781 10.0725 17.0966 10.4006 15.7382C10.8061 14.0598 10.3196 12.2089 9.98036 11.017C9.94199 10.8822 9.78144 10.8291 9.67559 10.921C8.95339 11.5481 7.76 12.9414 7.40063 14.7382Z" fill="white"/>
<path d="M45.3357 42.2733H48.5737L50.0632 38.7762H56.5824L58.0719 42.2733H61.3531L54.7259 26.9467H51.9412L45.3357 42.2733ZM51.2073 36.0347L53.3228 31.0482L55.4383 36.0347H51.2073Z" fill="white"/>
<path d="M62.4968 46.7849H65.4542V41.0644C65.9507 41.7552 67.0948 42.5107 68.5843 42.5107C71.4553 42.5107 73.6572 39.9419 73.6572 36.8766C73.6572 33.8113 71.4553 31.2424 68.5843 31.2424C67.0948 31.2424 65.9507 31.998 65.4542 32.6887V31.4799H62.4968V46.7849ZM70.6566 36.8766C70.6566 38.5603 69.5557 39.8124 67.9367 39.8124C66.3177 39.8124 65.2167 38.5603 65.2167 36.8766C65.2167 35.1928 66.3177 33.9408 67.9367 33.9408C69.5557 33.9408 70.6566 35.1928 70.6566 36.8766Z" fill="white"/>
<path d="M75.5353 46.7849H78.4927V41.0644C78.9892 41.7552 80.1333 42.5107 81.6228 42.5107C84.4939 42.5107 86.6957 39.9419 86.6957 36.8766C86.6957 33.8113 84.4939 31.2424 81.6228 31.2424C80.1333 31.2424 78.9892 31.998 78.4927 32.6887V31.4799H75.5353V46.7849ZM83.6951 36.8766C83.6951 38.5603 82.5942 39.8124 80.9752 39.8124C79.3562 39.8124 78.2553 38.5603 78.2553 36.8766C78.2553 35.1928 79.3562 33.9408 80.9752 33.9408C82.5942 33.9408 83.6951 35.1928 83.6951 36.8766Z" fill="white"/>
<path d="M103.843 36.8766C103.843 33.7249 101.296 31.2424 98.1661 31.2424C95.036 31.2424 92.4888 33.7249 92.4888 36.8766C92.4888 40.0282 95.036 42.5107 98.1661 42.5107C101.296 42.5107 103.843 40.0282 103.843 36.8766ZM95.4678 36.8766C95.4678 35.2144 96.6119 34.0055 98.1661 34.0055C99.7204 34.0055 100.843 35.2144 100.843 36.8766C100.843 38.5388 99.7204 39.7476 98.1661 39.7476C96.6119 39.7476 95.4678 38.5388 95.4678 36.8766Z" fill="white"/>
<path d="M106.625 42.2733H109.582V34.0703H112.626V31.4799H109.582V30.4437C109.582 29.1269 110.144 28.6088 111.417 28.6088C111.892 28.6088 112.281 28.6736 112.626 28.8031V26.1911C112.151 26.04 111.568 25.9537 110.748 25.9537C108.46 25.9537 106.625 27.4432 106.625 30.0767V31.4799H104.445V34.0703H106.625V42.2733Z" fill="white"/>
<path d="M124.936 42.1653V39.5533C124.591 39.6829 124.202 39.7476 123.727 39.7476C122.454 39.7476 121.893 39.2295 121.893 37.9127V34.0703H124.936V31.4799H121.893V28.4793H118.935V31.4799H116.755V34.0703H118.935V38.4956C118.935 41.1292 120.77 42.4028 123.058 42.4028C123.879 42.4028 124.461 42.3164 124.936 42.1653Z" fill="white"/>
<path d="M126.762 42.2733H129.719V37.0061C129.719 34.9338 130.756 33.9408 132.116 33.9408C133.346 33.9408 134.015 34.8906 134.015 36.4448V42.2733H136.973V35.9483C136.973 33.1421 135.418 31.2424 132.806 31.2424C131.403 31.2424 130.281 31.8469 129.719 32.7103V26.0832H126.762V42.2733Z" fill="white"/>
<path d="M149.891 38.7546H146.804C146.459 39.4886 145.552 39.9419 144.516 39.9419C142.681 39.9419 141.731 38.841 141.602 37.5674H150.021C150.172 33.509 147.56 31.2424 144.387 31.2424C141.105 31.2424 138.709 33.6386 138.709 36.855C138.709 40.1362 141.062 42.5107 144.365 42.5107C147.107 42.5107 149.244 40.9349 149.891 38.7546ZM144.3 33.6386C145.315 33.6386 146.416 34.1782 146.783 35.6245H141.71C141.99 34.4373 142.94 33.6386 144.3 33.6386Z" fill="white"/>
<path d="M160.395 42.2733H163.526V35.8404L169.203 26.9467H165.555L161.95 32.7535L158.366 26.9467H154.74L160.395 35.8188V42.2733Z" fill="white"/>
<path d="M178.235 38.7546H175.148C174.802 39.4886 173.896 39.9419 172.859 39.9419C171.025 39.9419 170.075 38.841 169.945 37.5674H178.364C178.515 33.509 175.903 31.2424 172.73 31.2424C169.449 31.2424 167.053 33.6386 167.053 36.855C167.053 40.1362 169.406 42.5107 172.708 42.5107C175.45 42.5107 177.587 40.9349 178.235 38.7546ZM172.644 33.6386C173.658 33.6386 174.759 34.1782 175.126 35.6245H170.053C170.334 34.4373 171.284 33.6386 172.644 33.6386Z" fill="white"/>
<path d="M179.543 36.8766C179.543 39.9419 181.745 42.5107 184.616 42.5107C186.105 42.5107 187.25 41.7552 187.724 41.0644V42.2733H190.682V31.4799H187.724V32.6887C187.25 31.998 186.105 31.2424 184.616 31.2424C181.745 31.2424 179.543 33.8113 179.543 36.8766ZM187.962 36.8766C187.962 38.5603 186.861 39.8124 185.242 39.8124C183.623 39.8124 182.522 38.5603 182.522 36.8766C182.522 35.1928 183.623 33.9408 185.242 33.9408C186.861 33.9408 187.962 35.1928 187.962 36.8766Z" fill="white"/>
<path d="M193.272 42.2733H196.23V37.114C196.23 35.3439 197.158 34.243 198.561 34.243C199.036 34.243 199.446 34.3293 199.899 34.4804V31.4799C199.533 31.372 199.209 31.3504 198.906 31.3504C197.698 31.3504 196.597 32.1491 196.23 33.2068V31.4799H193.272V42.2733Z" fill="white"/>
<path d="M113.628 65.4486H108.628C108.868 64.2905 110.04 63.7114 111.199 62.864C112.837 61.6777 113.515 60.8303 113.515 59.3615C113.515 57.4125 112.088 56.4239 110.422 56.4239C108.572 56.4239 107.117 57.6667 107.117 59.5875H108.36C108.374 58.2881 109.334 57.6102 110.436 57.6102C111.523 57.6102 112.272 58.3023 112.272 59.3474C112.272 60.5196 111.65 61.0421 110.492 61.9037C109.009 63.0053 107.131 63.9939 107.131 66.1406V66.6208H113.628V65.4486Z" fill="white"/>
<path d="M122.353 62.9911V60.1948C122.353 57.9774 120.856 56.4239 118.794 56.4239C116.732 56.4239 115.249 57.9774 115.249 60.1948V62.9911C115.249 65.2226 116.732 66.762 118.794 66.762C120.856 66.762 122.353 65.2226 122.353 62.9911ZM116.463 62.9911V60.1948C116.463 58.5706 117.438 57.6102 118.794 57.6102C120.163 57.6102 121.138 58.5706 121.138 60.1948V62.9911C121.138 64.6153 120.163 65.5757 118.794 65.5757C117.438 65.5757 116.463 64.6153 116.463 62.9911Z" fill="white"/>
<path d="M130.476 65.4486H125.477C125.717 64.2905 126.889 63.7114 128.047 62.864C129.685 61.6777 130.363 60.8303 130.363 59.3615C130.363 57.4125 128.937 56.4239 127.27 56.4239C125.42 56.4239 123.965 57.6667 123.965 59.5875H125.208C125.222 58.2881 126.183 57.6102 127.284 57.6102C128.372 57.6102 129.12 58.3023 129.12 59.3474C129.12 60.5196 128.499 61.0421 127.341 61.9037C125.858 63.0053 123.98 63.9939 123.98 66.1406V66.6208H130.476V65.4486Z" fill="white"/>
<path d="M139.201 62.9911V60.1948C139.201 57.9774 137.704 56.4239 135.642 56.4239C133.58 56.4239 132.097 57.9774 132.097 60.1948V62.9911C132.097 65.2226 133.58 66.762 135.642 66.762C137.704 66.762 139.201 65.2226 139.201 62.9911ZM133.312 62.9911V60.1948C133.312 58.5706 134.286 57.6102 135.642 57.6102C137.012 57.6102 137.987 58.5706 137.987 60.1948V62.9911C137.987 64.6153 137.012 65.5757 135.642 65.5757C134.286 65.5757 133.312 64.6153 133.312 62.9911Z" fill="white"/>
<path d="M107.145 7.0948C107.145 10.0183 109.405 12.278 112.343 12.278C115.266 12.278 117.653 10.0324 117.37 6.37452H112.286V7.60324H116.029C115.845 9.58047 114.405 11.0352 112.343 11.0352C110.111 11.0352 108.459 9.31213 108.459 7.0948C108.459 4.87747 110.111 3.15446 112.343 3.15446C113.854 3.15446 115.097 3.95947 115.633 5.04695H117.088C116.523 3.38043 114.715 1.91162 112.343 1.91162C109.405 1.91162 107.145 4.17132 107.145 7.0948Z" fill="white"/>
<path d="M126.078 8.57773C126.078 6.544 124.511 4.90572 122.392 4.90572C120.259 4.90572 118.692 6.544 118.692 8.57773C118.692 10.6115 120.259 12.2497 122.392 12.2497C124.511 12.2497 126.078 10.6115 126.078 8.57773ZM119.935 8.57773C119.935 7.16542 120.923 6.03557 122.392 6.03557C123.861 6.03557 124.835 7.16542 124.835 8.57773C124.835 9.99004 123.861 11.1199 122.392 11.1199C120.923 11.1199 119.935 9.99004 119.935 8.57773Z" fill="white"/>
<path d="M134.73 8.57773C134.73 6.544 133.162 4.90572 131.044 4.90572C128.911 4.90572 127.344 6.544 127.344 8.57773C127.344 10.6115 128.911 12.2497 131.044 12.2497C133.162 12.2497 134.73 10.6115 134.73 8.57773ZM128.586 8.57773C128.586 7.16542 129.575 6.03557 131.044 6.03557C132.513 6.03557 133.487 7.16542 133.487 8.57773C133.487 9.99004 132.513 11.1199 131.044 11.1199C129.575 11.1199 128.586 9.99004 128.586 8.57773Z" fill="white"/>
<path d="M136.25 12.7582C136.462 14.1846 137.775 15.2015 139.667 15.2015C141.588 15.2015 143.142 14.0292 143.142 11.6707V5.04695H141.927V6.13443C141.447 5.42828 140.515 4.90572 139.47 4.90572C137.507 4.90572 136.01 6.48751 136.01 8.49299C136.01 10.5126 137.507 12.0944 139.47 12.0944C140.515 12.0944 141.447 11.5577 141.927 10.8516V11.6848C141.927 13.2807 140.967 14.1281 139.696 14.1281C138.552 14.1281 137.761 13.6903 137.436 12.7582H136.25ZM142.026 8.49299C142.026 9.91943 141.052 10.9645 139.639 10.9645C138.227 10.9645 137.252 9.91943 137.252 8.49299C137.252 7.08068 138.227 6.02145 139.639 6.02145C141.052 6.02145 142.026 7.08068 142.026 8.49299Z" fill="white"/>
<path d="M145.516 12.1085H146.73V1.51617H145.516V12.1085Z" fill="white"/>
<path d="M155.433 9.96179H154.19C153.766 10.8092 153.018 11.1481 152.142 11.1481C150.871 11.1481 149.84 10.1878 149.797 8.90256H155.546C155.715 6.71348 154.373 4.90572 152.156 4.90572C149.953 4.90572 148.569 6.51575 148.569 8.57773C148.569 10.6821 150.066 12.2497 152.128 12.2497C153.921 12.2497 155.08 11.2046 155.433 9.96179ZM152.114 5.97908C153.159 5.97908 154.034 6.62874 154.26 7.94219H149.854C150.094 6.544 151.097 5.97908 152.114 5.97908Z" fill="white"/>
<path d="M96.3936 6.32009L90.7929 0.69543L97.9187 4.79263L96.3936 6.32009ZM89.3316 0.364807C89.0015 0.537642 88.781 0.852811 88.781 1.26192V12.4783C88.781 12.8874 89.0019 13.2026 89.3316 13.3754L95.8434 6.86868L89.3316 0.364807ZM100.121 6.09886L98.6268 5.23224L96.9596 6.87153L98.6268 8.51082L100.152 7.6442C100.609 7.28105 100.609 6.46242 100.121 6.09886ZM90.7933 13.048L97.9191 8.95084L96.394 7.42338L90.7933 13.048Z" fill="white"/>
</svg>