<svg width="164" height="54" viewBox="0 0 164 54" fill="none" xmlns="http://www.w3.org/2000/svg">
<path d="M130.215 1.40576L136.065 1.40576V40.5533H130.215V1.40576Z" fill="#EDEDED"/>
<path d="M55.6984 14.7334C48.3278 14.7334 42.3242 20.3355 42.3242 28.0503C42.3242 35.7172 48.3278 41.3671 55.6984 41.3671C63.0691 41.3671 69.0727 35.7172 69.0727 28.0503C69.0727 20.3259 63.0691 14.7334 55.6984 14.7334ZM55.6984 36.1188C51.6642 36.1188 48.1844 32.7919 48.1844 28.0503C48.1844 23.2608 51.6642 19.9818 55.6984 19.9818C59.7327 19.9818 63.2125 23.2608 63.2125 28.0503C63.2125 32.7919 59.7327 36.1188 55.6984 36.1188Z" fill="#EDEDED"/>
<path d="M20.9839 18.8138V24.4636H34.5015C34.1 27.6375 33.0388 29.9605 31.4232 31.5761C29.4539 33.5455 26.3756 35.7156 20.9839 35.7156C12.6572 35.7156 6.15654 29.0045 6.15654 20.6779C6.15654 12.3513 12.6572 5.64986 20.9839 5.64986C25.477 5.64986 28.756 7.41843 31.1746 9.68412L35.1611 5.69766C31.7769 2.46644 27.2933 0 20.9839 0C9.57896 0 0 9.2826 0 20.6875C0 32.0924 9.58852 41.375 20.9839 41.375C27.1404 41.375 31.7769 39.3579 35.4097 35.5722C39.1475 31.8343 40.3043 26.5955 40.3043 22.3509C40.3043 21.0412 40.1991 19.8271 39.9984 18.8233H20.9839V18.8138Z" fill="#EDEDED"/>
<path d="M152.108 36.1186C149.135 36.1186 147.013 34.7611 145.646 32.0843L163.456 24.7137L162.853 23.2032C161.744 20.2301 158.36 14.7236 151.448 14.7236C144.584 14.7236 138.887 20.1249 138.887 28.0405C138.887 35.5067 144.537 41.3573 152.108 41.3573C158.217 41.3573 161.744 37.6195 163.207 35.4589L158.666 32.4285C157.156 34.6559 155.091 36.1186 152.108 36.1186ZM151.659 19.8764C153.982 19.8764 155.951 21.0331 156.601 22.7061L144.699 27.6485C144.546 22.4958 148.676 19.8764 151.659 19.8764Z" fill="#EDEDED"/>
<path d="M120.629 17.7055H120.428C119.118 16.1377 116.594 14.7324 113.411 14.7324C106.748 14.7324 100.648 20.583 100.648 28.1066C100.648 35.5729 106.757 41.3757 113.411 41.3757C116.585 41.3757 119.108 39.9608 120.428 38.3452H120.629V40.2668C120.629 45.3622 117.904 48.0867 113.516 48.0867C109.931 48.0867 107.713 45.5151 106.805 43.345L101.71 45.4673C103.172 48.9949 107.054 53.3351 113.516 53.3351C120.38 53.3351 126.183 49.3008 126.183 39.4637V15.5354H120.629V17.7055ZM113.917 36.1178C109.883 36.1178 106.499 32.7336 106.499 28.0971C106.499 23.4032 109.883 19.9712 113.917 19.9712C117.904 19.9712 121.03 23.4032 121.03 28.0971C121.03 32.7432 117.904 36.1178 113.917 36.1178Z" fill="#EDEDED"/>
<path d="M84.8547 14.7329C77.4841 14.7329 71.4805 20.335 71.4805 28.0498C71.4805 35.7168 77.4841 41.3666 84.8547 41.3666C92.2253 41.3666 98.2289 35.7168 98.2289 28.0498C98.2289 20.3254 92.2253 14.7329 84.8547 14.7329ZM84.8547 36.1183C80.8204 36.1183 77.3406 32.7914 77.3406 28.0498C77.3406 23.2603 80.8204 19.9813 84.8547 19.9813C88.8889 19.9813 92.3687 23.2603 92.3687 28.0498C92.3783 32.7914 88.8985 36.1183 84.8547 36.1183Z" fill="#EDEDED"/>
</svg>
