<svg width="118" height="56" viewBox="0 0 118 56" fill="none" xmlns="http://www.w3.org/2000/svg">
<path d="M58.5674 32.5229C56.8119 43.1974 47.4581 55.2524 28.9138 55.446C12.5136 55.6172 0.0531369 43.6397 0.000128545 27.4167C-0.0453837 13.4139 11.9992 0.0775092 28.7663 0.000458393C49.0729 -0.0927432 56.7574 14.0515 58.2506 19.6261C57.2711 19.6261 39.1136 19.5996 39.1136 19.5996C36.6061 16.6708 35.0146 15.2441 28.8608 15.2441C23.2894 15.2441 16.2487 20.1423 16.394 27.9823C16.5339 35.5505 22.9191 40.2111 28.8077 40.3129C36.4459 40.4451 39.4708 36.8601 39.4708 36.5425H31.6194V23.4476H58.4134C60.3997 9.4774 73.2708 0.108679 87.3809 0.102918C104.743 0.0957175 116.986 12.4842 116.964 28.2663C116.95 38.6662 110.946 45.2565 110.946 45.2565L117.903 53.9189L102.011 54.4285L100.74 52.8319C99.8548 53.2865 94.2568 55.6074 87.3551 55.5496C72.6761 55.4266 60.8967 46.853 58.5674 32.5228V32.5229ZM99.9351 31.898C102.574 23.8918 97.1377 15.2602 87.4258 15.2263C80.1441 15.2008 74.3122 20.6951 74.4648 28.0332C74.6414 36.526 82.0577 41.3838 90.2415 40.1526L81.8811 29.9017L97.8439 29.3921L99.9351 31.898Z" fill="white"/>
</svg>
