<svg width="56" height="19" viewBox="0 0 56 19" fill="none" xmlns="http://www.w3.org/2000/svg">
<path fill-rule="evenodd" clip-rule="evenodd" d="M22.2605 3.11874C21.7329 3.70688 21.7831 4.61908 22.3721 5.14596C22.961 5.67284 23.8745 5.62269 24.4021 5.03456L26.7728 2.39184C27.3004 1.8037 27.2502 0.891497 26.6613 0.36462C26.0725 -0.162257 25.1588 -0.112111 24.6312 0.476024L22.2605 3.11874ZM1.29072 1.79966C0.546529 1.87064 0 2.5374 0 3.28388V17.4243C0 18.1709 0.546529 18.8375 1.29072 18.9085C2.14439 18.9899 2.86284 18.3216 2.86284 17.4859V3.22235C2.86284 2.38654 2.14439 1.71826 1.29072 1.79966ZM10.915 15.869C8.70803 16.2333 6.81778 14.3459 7.18251 12.142C7.40354 10.8066 8.48185 9.72969 9.81903 9.50869C12.0262 9.14419 13.9167 11.0319 13.5517 13.236C13.3305 14.5712 12.2522 15.6481 10.915 15.869ZM10.9891 6.6349C7.13573 6.25388 3.92388 9.46125 4.30558 13.3093C4.58809 16.1566 6.89439 18.4597 9.74569 18.7418C13.5989 19.123 16.8109 15.9156 16.4292 12.0677C16.1469 9.22011 13.8406 6.91702 10.9891 6.6349ZM20.1742 12.1413C19.8092 14.3455 21.6993 16.2333 23.9066 15.8689C25.2436 15.6482 26.3222 14.5713 26.5433 13.2361C26.9081 11.0322 25.0182 9.14441 22.8112 9.50862C21.474 9.72921 20.3954 10.8062 20.1742 12.1413ZM17.2976 13.31C16.9153 9.46145 20.1276 6.25352 23.9813 6.63496C26.8327 6.91708 29.1389 9.22031 29.4211 12.0678C29.8025 15.9154 26.5914 19.1223 22.7384 18.7419C19.8871 18.4602 17.5805 16.1574 17.2976 13.31ZM33.7023 7.2321C34.5138 6.83094 35.4267 6.6041 36.3937 6.6041C39.6568 6.6041 42.3122 9.16806 42.4705 12.3874H42.4855V17.2957C42.4855 18.1313 41.7672 18.7996 40.9136 18.7182C40.1694 18.6473 39.6228 17.9805 39.6228 17.234V12.6726C39.6142 10.9015 38.1692 9.46296 36.3937 9.46296C34.618 9.46296 33.1731 10.9015 33.1645 12.6726V17.2957C33.1645 18.1313 32.446 18.7996 31.5922 18.7182C30.8482 18.6473 30.3017 17.9805 30.3017 17.234V8.15042C30.3017 7.38282 30.8773 6.70078 31.6444 6.65438C32.0802 6.62799 32.4746 6.79746 32.7519 7.08208C32.9967 7.3335 33.3876 7.38782 33.7023 7.2321ZM46.2459 12.1419C45.8812 14.3458 47.7714 16.2332 49.9784 15.8689C51.3156 15.648 52.3939 14.5711 52.6151 13.2359C52.9801 11.0318 51.0895 9.14409 48.8824 9.50872C47.5454 9.72958 46.4669 10.8065 46.2459 12.1419ZM53.1084 7.08778C53.3834 6.8019 53.7755 6.63063 54.2096 6.65369C54.9817 6.69467 55.5634 7.38004 55.5634 8.15181V17.225C55.5634 17.9967 54.9817 18.682 54.2098 18.723C53.7754 18.746 53.383 18.5745 53.1082 18.2887C52.858 18.0287 52.4593 17.9783 52.1359 18.139C51.2425 18.5828 50.2248 18.8145 49.1486 18.7662C46.0543 18.6275 43.5101 16.1096 43.3456 13.0209C43.1585 9.50977 45.9543 6.6041 49.4296 6.6041C50.4065 6.6041 51.3289 6.83496 52.1469 7.24377C52.4659 7.4031 52.8613 7.34448 53.1084 7.08778Z" fill="white"/>
</svg>
