<svg width="197" height="31" viewBox="0 0 197 31" fill="none" xmlns="http://www.w3.org/2000/svg">
<path d="M26.9375 23.9125C28.8239 21.3388 29.84 18.2231 29.8363 15.0242C29.8363 6.74395 23.1399 0 14.9185 0C6.69045 0 0 6.74395 0 15.0242C0 23.3103 6.69045 30.0483 14.9188 30.0483C18.0338 30.0529 21.0709 29.0684 23.5983 27.2347L27.3367 31L30.6581 27.6603L26.9375 23.9125ZM23.5632 20.5149L18.0508 14.9633L14.7346 18.3087L20.2171 23.8298C18.6198 24.8065 16.7865 25.322 14.9178 25.3198C9.27706 25.3198 4.69385 20.7027 4.69385 15.0242C4.69385 9.3496 9.27706 4.72853 14.9178 4.72853C20.551 4.72853 25.1408 9.34993 25.1408 15.0242C25.1422 16.968 24.5951 18.8722 23.5632 20.5149ZM164.475 0.744331V5.52015H155.605V29.4068H150.799V5.52015H141.929V0.744331H164.475ZM90.3097 0.744331H84.5412L73.5729 29.4068H78.6076L80.6623 23.8229H94.189L96.2434 29.4068H101.279L90.3097 0.744331ZM82.4931 19.3559L87.428 6.41824L92.3579 19.3559H82.4931ZM197 5.52015L181.091 24.5675H197V29.4068H174.824V24.3149L190.791 5.52015H175.933V0.791947H197V5.52015ZM64.2706 0.744331V18.8771C64.2706 25.0242 59.3114 30.0242 53.209 30.0242C47.1043 30.0242 42.1399 25.0242 42.1399 18.8771V0.744331H46.9402V18.8771C46.8348 22.4172 49.6929 25.296 53.209 25.296C56.7183 25.296 59.5764 22.4172 59.5071 18.8771V0.744331H64.2706ZM126.318 19.6991C129.582 18.0617 131.818 14.6872 131.818 10.7976C131.818 5.54363 127.515 0.850475 122.161 0.744331H111.621V29.4062H116.426V20.7745H120.779L130.685 30.881L134.024 27.5591L126.318 19.6991ZM121.811 16.0456H116.427V5.54925H121.811C124.74 5.54925 127.123 7.90227 127.123 10.7976C127.123 13.6942 124.74 16.0456 121.811 16.0456Z" fill="white"/>
</svg>
