<svg width="239" height="34" viewBox="0 0 239 34" fill="none" xmlns="http://www.w3.org/2000/svg">
<path fill-rule="evenodd" clip-rule="evenodd" d="M33.5217 11.1805C29.9733 11.1661 26.4248 11.1565 22.8763 11.1349C22.4728 11.1325 22.2794 11.2812 22.3056 11.6987C22.32 11.9122 22.3056 12.1282 22.3056 12.3417C22.3056 19.1004 22.3056 25.8614 22.3056 32.6201C22.3056 32.9392 22.3056 33.2535 22.3056 33.6278C18.5948 33.6278 14.9508 33.6278 11.1683 33.6278C11.1683 33.3087 11.1683 32.9776 11.1683 32.6393C11.1683 25.8254 11.1683 19.014 11.1683 12.2025C11.1683 11.1445 11.1683 11.1421 10.1439 11.1421C7.07304 11.1397 4.00455 11.1421 0.936068 11.1421C0.644741 11.1421 0.353413 11.1421 0 11.1421C0 7.40406 0 3.72362 0 0C11.1373 0 22.2603 0 33.4979 0C33.4979 3.72602 33.4979 7.46404 33.4979 11.2045L33.5217 11.1805ZM33.5241 11.1781C33.5552 11.5236 33.6101 11.8643 33.6101 12.2097C33.6149 19.0236 33.6125 25.835 33.6172 32.6489C33.6172 32.9824 33.6483 33.3183 33.665 33.6326C44.8859 33.6326 56.0065 33.6326 67.1533 33.6326C67.1533 29.9161 67.1533 26.2573 67.1533 22.5025C66.7856 22.5025 66.4727 22.5025 66.1599 22.5025C59.3519 22.5025 52.544 22.4881 45.736 22.5169C44.9862 22.5217 44.7259 22.3441 44.7378 21.5476C44.7832 18.4358 44.7569 15.324 44.7545 12.2121C44.7545 11.9026 44.7259 11.5931 44.7068 11.2045C40.91 11.2045 37.2039 11.2045 33.4979 11.2045C33.4955 11.2045 33.5217 11.1805 33.5241 11.1781ZM44.9169 0.0119988C44.9002 0.307105 44.8716 0.544628 44.8716 0.782153C44.8692 3.94675 44.8907 7.11375 44.8524 10.276C44.8453 11.0197 45.1103 11.1541 45.7837 11.1517C52.618 11.1301 59.4522 11.1397 66.2865 11.1373C66.5707 11.1373 66.8548 11.1133 67.17 11.0989C67.17 7.36807 67.17 3.72842 67.17 0.00960085C59.7101 0.0120001 52.3338 0.0119988 44.9169 0.0119988ZM153.599 8.17662C152.675 8.07105 151.727 8.02786 150.802 8.11663C147.524 8.41654 145.105 10.0648 143.799 13.1071C142.347 16.4924 142.378 19.9569 143.777 23.3614C144.849 25.9718 146.812 27.6585 149.587 28.1455C150.929 28.3854 152.364 28.3974 153.716 28.2007C156.636 27.7784 158.58 25.9694 159.896 23.2894C158.351 22.4641 156.853 21.6676 155.361 20.871C154.891 21.5188 154.516 22.145 154.031 22.6704C152.632 24.2036 150.201 23.9444 149.308 22.0802C148.099 19.5586 148.092 16.9075 149.281 14.3835C150.279 12.2721 152.99 12.2625 154.188 14.2731C154.47 14.7433 154.695 15.252 154.967 15.787C156.6 15.144 158.184 14.5226 159.831 13.87C158.792 10.7222 156.973 8.56529 153.599 8.17662ZM230.313 27.1474C230.313 24.7338 230.308 22.3201 230.318 19.9065C230.32 19.4794 230.349 19.0476 230.425 18.6301C230.605 17.6704 231.08 17.2865 232.021 17.2865C232.933 17.2889 233.456 17.7064 233.616 18.6421C233.697 19.1124 233.699 19.6018 233.702 20.0841C233.709 22.4425 233.706 24.8034 233.706 27.1618C233.706 27.4521 233.706 27.7376 233.706 28.0471C235.447 28.0471 237.085 28.0471 238.709 28.0471C238.745 27.9488 238.776 27.9008 238.776 27.8552C238.783 25.2256 238.8 22.5985 238.786 19.9713C238.776 19.0092 238.767 18.0351 238.623 17.0874C238.167 14.0476 236.023 12.5096 233.007 13.0879C232.095 13.263 231.233 13.7021 230.282 14.0428C230.282 11.9338 230.282 9.8033 230.282 7.56241C228.795 8.15502 227.424 8.73804 226.029 9.24428C225.437 9.45781 225.217 9.73372 225.22 10.3935C225.251 15.9981 225.237 21.598 225.239 27.2026C225.239 27.4881 225.265 27.7688 225.28 28.0519C226.992 28.0519 228.611 28.0519 230.313 28.0519C230.313 27.7232 230.313 27.4329 230.313 27.1474ZM131.107 19.8777C131.109 19.4506 131.133 19.0188 131.224 18.6037C131.443 17.5816 131.959 17.205 132.977 17.2457C133.884 17.2817 134.395 17.7664 134.519 18.7645C134.584 19.2947 134.607 19.8321 134.612 20.3672C134.622 22.5937 134.612 24.8154 134.617 27.0395C134.617 27.3538 134.65 27.6633 134.667 28.0039C136.329 28.0039 137.912 28.0039 139.548 28.0039C139.562 27.6944 139.586 27.4329 139.586 27.1738C139.586 24.4939 139.598 21.8091 139.579 19.1292C139.574 18.4358 139.524 17.7352 139.414 17.049C138.963 14.1507 136.938 12.6296 134.058 13.1167C133.067 13.2846 132.122 13.7453 131.1 14.0884C131.1 12.001 131.1 9.87048 131.1 7.62959C129.617 8.2198 128.251 8.80282 126.852 9.30666C126.298 9.5082 126.157 9.8057 126.159 10.3623C126.178 15.967 126.171 21.5668 126.173 27.1714C126.173 27.4521 126.2 27.7328 126.214 28.0111C127.878 28.0111 129.447 28.0111 131.107 28.0111C131.102 25.24 131.097 22.5601 131.107 19.8777ZM189.382 13.3278C187.694 13.3278 186.072 13.3278 184.353 13.3278C184.353 13.6589 184.353 13.9444 184.353 14.2299C184.353 16.6171 184.355 19.0044 184.35 21.394C184.348 21.8475 184.346 22.3129 184.269 22.7568C184.107 23.6853 183.577 24.1028 182.662 24.098C181.745 24.0932 181.253 23.6757 181.1 22.716C181.024 22.2434 180.995 21.7563 180.993 21.2765C180.983 18.9132 180.991 16.5548 180.988 14.1915C180.986 13.9108 180.96 13.6277 180.945 13.3206C179.24 13.3206 177.621 13.3206 175.959 13.3206C175.938 13.5653 175.902 13.7716 175.904 13.978C175.933 17.2769 175.835 20.5807 176.036 23.8725C176.251 27.3538 178.906 29.1244 182.22 28.2079C182.925 28.0111 183.577 27.6273 184.295 27.313C184.336 27.5577 184.374 27.8 184.422 28.0663C186.096 28.0663 187.715 28.0663 189.384 28.0663C189.382 23.0999 189.382 18.2102 189.382 13.3278ZM206.525 17.6224C206.518 16.9698 206.303 16.2957 206.069 15.6742C205.565 14.3331 204.607 13.4453 203.191 13.1286C201.615 12.7784 200.118 12.9943 198.728 13.8604C198.566 13.9636 198.382 14.0356 198.184 14.1363C198.138 13.81 198.11 13.5773 198.074 13.3206C196.431 13.3206 194.814 13.3206 193.15 13.3206C193.15 18.251 193.15 23.1383 193.15 28.0495C194.817 28.0495 196.431 28.0495 198.134 28.0495C198.134 27.7208 198.134 27.4353 198.134 27.145C198.134 24.7314 198.129 22.3177 198.138 19.9041C198.143 19.4507 198.177 18.99 198.265 18.5485C198.442 17.668 198.95 17.2865 199.85 17.2865C200.739 17.2889 201.25 17.68 201.422 18.5725C201.505 19.0164 201.515 19.4794 201.52 19.9305C201.527 22.3465 201.522 24.7602 201.522 27.1738C201.522 27.4593 201.522 27.7496 201.522 28.0639C203.256 28.0639 204.875 28.0639 206.546 28.0639C206.549 24.5323 206.572 21.0749 206.525 17.6224ZM84.3225 27.992C86.1445 27.992 87.8566 27.992 89.6333 27.992C89.6333 27.6081 89.6333 27.289 89.6333 26.9699C89.6333 22.6536 89.6476 18.3398 89.6189 14.0236C89.6142 13.311 89.7741 13.0327 90.5431 13.0639C92.0522 13.1262 93.5662 13.0831 95.1733 13.0831C95.1733 11.7611 95.1327 10.5327 95.19 9.31146C95.2234 8.59888 94.9989 8.40215 94.2945 8.40695C89.4136 8.43574 84.5303 8.42134 79.6493 8.42374C79.3699 8.42374 79.0929 8.46693 78.8398 8.48612C78.8398 10.0696 78.8398 11.5547 78.8398 13.0831C79.7854 13.0831 80.6618 13.0831 81.5406 13.0831C82.4169 13.0831 83.2933 13.0831 84.3225 13.0831C84.3225 18.1359 84.3225 23.0519 84.3225 27.992ZM107.509 17.9223C106.836 14.8465 104.723 13.1526 101.609 13.0207C98.5378 12.8887 96.0329 14.5946 95.1446 17.5025C94.5118 19.573 94.4879 21.6939 95.1279 23.7645C95.9183 26.3221 97.6448 27.8552 100.322 28.2631C101.943 28.5078 103.517 28.3015 105.047 27.7712C105.862 27.4953 106.635 27.1018 107.485 26.7348C106.798 25.5855 106.196 24.585 105.582 23.5582C105.246 23.7045 104.988 23.8629 104.711 23.9228C103.653 24.1484 102.59 24.4747 101.523 24.5179C100.193 24.5658 99.3497 23.5702 99.302 22.1186C102.117 22.1186 104.933 22.1186 108.016 22.1186C107.841 20.6119 107.801 19.2371 107.509 17.9223ZM99.3068 18.9948C99.3283 17.5289 100.102 16.6651 101.325 16.6819C102.643 16.6987 103.445 17.5768 103.404 18.9948C101.993 18.9948 100.649 18.9948 99.3068 18.9948ZM216.308 12.9823C213.672 13.0831 211.48 14.0452 210.379 16.6076C209.18 19.3979 209.19 22.2746 210.491 25.0241C211.699 27.5745 213.97 28.407 216.64 28.4022C219.255 28.4022 221.017 27.0347 222.378 24.8537C221.304 24.0092 220.265 23.2007 219.231 22.3849C218.868 22.8216 218.596 23.1911 218.28 23.5102C216.946 24.8561 215.152 24.4483 214.83 22.6057C214.603 21.3221 214.732 19.9521 214.859 18.6373C214.923 17.9103 215.389 17.2817 216.22 17.1402C217.082 16.9938 217.722 17.3657 218.199 18.0639C218.402 18.3614 218.603 18.6613 218.823 18.99C219.993 18.0999 221.093 17.2577 222.247 16.3796C220.864 14.0236 218.928 12.8791 216.308 12.9823ZM118.047 13.0615C114.611 12.8287 111.621 14.2899 110.8 18.0327C110.535 19.2443 110.461 20.5327 110.52 21.7731C110.702 25.5591 112.858 27.86 116.505 28.3278C119.256 28.6781 121.93 27.2818 123.091 24.8561C122.921 24.7098 122.749 24.5466 122.563 24.4027C121.749 23.7597 120.929 23.1287 120.106 22.4809C119.69 22.9391 119.353 23.395 118.936 23.7549C117.706 24.8178 116.192 24.4339 115.683 22.8936C115.184 21.3796 115.194 19.8177 115.74 18.3182C116.275 16.8571 117.859 16.598 118.866 17.7688C119.16 18.1119 119.392 18.503 119.683 18.918C120.789 18.0759 121.868 17.2553 123.021 16.3724C121.858 14.3907 120.28 13.2126 118.047 13.0615ZM173.421 14.1435C173.538 13.6685 173.373 13.4573 172.958 13.3062C171.456 12.7688 170.025 12.8551 168.686 13.7764C168.485 13.918 168.287 14.0572 168.041 14.2299C167.991 13.8508 167.957 13.5917 167.924 13.3206C166.259 13.3206 164.64 13.3206 162.976 13.3206C162.976 18.251 162.976 23.1383 162.976 28.0303C164.664 28.0303 166.302 28.0303 167.991 28.0303C167.991 27.4065 167.991 26.8451 167.991 26.2861C167.991 24.1388 167.979 21.9939 168.005 19.8513C168.015 19.062 168.136 18.2558 168.951 17.8624C169.817 17.4449 170.672 17.6008 171.46 18.1119C171.745 18.2942 172.002 18.5245 172.361 18.8005C172.728 17.1666 173.056 15.6503 173.421 14.1435Z" fill="#EDEDED"/>
</svg>
