<svg width="174" height="57" viewBox="0 0 174 57" fill="none" xmlns="http://www.w3.org/2000/svg">
<path d="M39.5226 30.4122C40.1124 30.1189 40.7614 29.7649 41.3513 29.4716C41.5879 29.3553 42.4127 29.0603 42.531 28.8242C42.5902 28.7062 42.531 28.3539 42.531 28.1769V26.7641V16.7032V6.87832V5.58362C42.531 5.52461 42.5902 5.11328 42.531 5.05428C42.4719 4.99527 42.0003 5.05428 41.9412 5.05428H40.6431C40.1716 5.05428 40.2307 5.11328 39.9349 5.4656C38.8144 6.93734 37.6921 8.40734 36.5715 9.93808C36.0408 10.6444 35.5101 11.2918 35.0386 11.9982C34.6853 12.4685 34.6853 12.5275 34.0363 12.5275L34.2138 8.64337C34.273 7.7027 34.273 6.76204 34.3321 5.81964C34.3321 5.4656 34.3913 5.11328 34.3913 4.76097C34.3913 4.64295 34.3321 4.29063 34.3913 4.23163C34.5096 4.0546 35.571 4.17262 35.8668 4.17262H57.9284C58.0449 4.17262 58.5774 4.11361 58.694 4.17262C58.8123 4.23163 58.7531 4.58394 58.7531 4.76097C58.8123 5.5246 58.8123 6.34899 58.8715 7.11436C58.9306 8.8204 58.988 10.4692 59.1064 12.1752V12.5292C58.8123 12.5292 58.5757 12.5882 58.339 12.4112C58.1041 12.2342 57.9266 11.8819 57.7491 11.6459C57.041 10.7052 56.3345 9.70378 55.5672 8.76312L53.4426 5.9394C53.3243 5.76237 53.1486 5.35105 52.9119 5.23304C52.7344 5.11676 52.3812 5.17403 52.1446 5.17403H51.2015C51.0832 5.17403 50.6116 5.11502 50.4933 5.17403C50.4342 5.23304 50.4933 5.23303 50.4342 5.35105C50.3158 5.82138 50.4342 6.40973 50.4342 6.88179V27.356C50.4342 27.7673 50.3158 28.3556 50.4342 28.7669C50.5525 29.1783 51.4956 29.4733 51.9097 29.6503C52.3221 29.8846 53.0302 30.0617 53.3835 30.414C53.5018 30.5303 53.6201 31.1203 53.5018 31.2956C53.4426 31.3546 53.1486 31.2956 53.0894 31.2956H40.1124C39.9941 31.2956 39.5817 31.3546 39.5226 31.2956C39.4634 31.0596 39.5226 30.5875 39.5226 30.4122ZM61.4066 29.3536V20.7626V6.69956V4.40518C61.4066 4.05287 61.525 3.52353 61.4066 3.16948C61.2883 2.75815 60.5801 2.69915 60.1678 2.52212C59.9311 2.46312 59.1655 2.28609 59.0472 2.05179V1.58146H59.2247C59.4613 1.46345 59.9329 1.46344 60.2269 1.40444C60.7576 1.28815 61.2883 1.22741 61.7616 1.11113C62.9413 0.876834 64.1802 0.640799 65.3599 0.463774C66.0681 0.347493 66.7746 0.170469 67.4828 0.0524519C67.6602 0.0524519 68.3684 -0.0655648 68.4258 0.0524519C68.485 0.11146 68.4258 0.345756 68.4258 0.404765V12.5848C70.6687 10.3494 74.5611 9.1137 77.6879 9.87734C80.4006 10.5247 81.2862 13.0551 81.2862 15.6445C81.3454 18.9386 81.2862 22.1754 81.2862 25.4694V28.1161C81.2862 28.4112 81.1679 29.1175 81.2862 29.4108C81.3454 29.5289 81.5803 29.5879 81.6986 29.7041C82.111 29.9402 82.5826 30.1745 82.9967 30.4105C83.0558 30.4695 83.2333 30.5268 83.2333 30.5875C83.2925 30.6465 83.2925 31.1759 83.2333 31.2349C83.1742 31.3512 83.1742 31.2922 82.9967 31.2922C82.3477 31.4102 81.6395 31.2922 81.0496 31.2922H72.5549C72.4957 31.2922 72.1999 31.3512 72.1425 31.2922C72.0833 31.2349 72.0833 30.5875 72.1425 30.5285C72.32 30.2925 73.0282 30.0582 73.2631 29.8812C73.4405 29.7631 73.9713 29.5879 74.0896 29.4108C74.2079 29.2338 74.0896 28.5865 74.0896 28.4112V25.9988C74.0896 22.5867 74.1487 19.1156 74.0896 15.7018C74.0896 14.7021 73.9121 13.5254 72.9098 12.9944C72.3791 12.7011 71.671 12.642 71.0811 12.642C70.6096 12.642 70.138 12.7601 69.7256 12.8764C69.3707 12.9944 68.7216 13.2304 68.4867 13.5237C68.3093 13.7597 68.4276 14.1121 68.4276 14.4054V28.2914C68.4276 28.5847 68.3093 29.1731 68.4276 29.4091C68.4867 29.5271 68.7216 29.6451 68.8991 29.7024C69.3115 29.9384 69.8422 30.1727 70.2546 30.4088C70.3138 30.4678 70.4321 30.4678 70.4321 30.525C70.4912 30.5841 70.4912 31.1151 70.4321 31.1724C70.3729 31.2314 70.3138 31.2314 70.1954 31.2314C69.5464 31.2887 68.8382 31.2314 68.1892 31.2314H59.6962C59.6371 31.2314 59.3413 31.2887 59.2821 31.2314C59.2229 31.1724 59.2821 30.5841 59.3413 30.4678C59.5187 30.2317 60.1678 29.9974 60.4027 29.8794C60.8168 29.7059 61.1126 29.5288 61.4066 29.3536ZM89.426 21.233C89.5443 23.8224 90.3708 26.7051 92.7285 28.1161C93.9692 28.8225 95.5021 29.0585 96.9167 28.9405C98.6272 28.7635 100.044 27.9391 101.519 27.1755C101.519 27.4098 101.578 27.8228 101.519 28.0571C101.402 28.2931 101.107 28.5865 100.929 28.7635C100.693 28.9995 100.397 29.2928 100.103 29.5288C99.1005 30.3515 97.9781 30.9398 96.8002 31.3512C94.559 32.1148 91.9629 32.0575 89.6609 31.4674C87.8322 30.9971 86.1809 30.1155 84.942 28.7045C83.7031 27.2917 82.9949 25.4677 82.7009 23.5864C82.0518 19.5269 82.8192 14.8774 86.1809 12.1717C89.1302 9.81833 93.8491 9.348 97.3291 10.7607C101.576 12.4668 102.285 17.2916 102.285 21.292H91.0199C90.4874 21.233 89.9567 21.233 89.426 21.233ZM89.3077 20.2333C90.4874 20.1743 91.6671 20.1153 92.906 19.9973C93.6125 19.9383 94.3816 19.9383 95.088 19.8793C95.2046 19.8793 95.5004 19.8792 95.6204 19.8202C95.7979 19.7022 95.6779 18.5255 95.6779 18.2912C95.6204 16.1721 95.5613 13.5844 94.3224 11.7604C93.4367 10.4657 92.0813 10.7017 91.2548 11.8784C89.5443 14.1728 89.3077 17.5849 89.3077 20.2333ZM0 41.7071C0 38.4131 0.649023 34.9993 2.47777 32.2346C4.24736 29.5288 7.07836 27.7638 10.146 26.8822C13.8626 25.8235 17.9917 25.9415 21.8249 26.6461C22.6514 26.8231 23.4762 26.9984 24.2435 27.2345C24.3619 27.2935 24.8926 27.4115 24.9517 27.5278V27.7048C25.1292 28.4112 25.0109 29.2928 25.0109 29.9992C25.07 31.8232 25.07 33.7063 25.1292 35.5303C24.8926 35.5303 24.4802 35.5893 24.3027 35.5303C24.1844 35.4713 24.0661 35.1763 24.0086 35.06C23.5371 34.3554 23.0656 33.649 22.6514 32.8836C21.6492 31.2939 20.586 29.7059 19.5838 28.1179C19.0531 27.2362 17.5793 27.2362 16.6345 27.2362C15.5731 27.2362 14.5099 27.4132 13.626 27.9426C11.6215 29.1783 10.6767 31.5907 10.146 33.767C9.31949 37.2364 9.37865 40.8862 9.55613 44.4163C9.73361 47.122 9.96851 50.0065 11.0317 52.4779C11.6807 54.0069 12.8012 55.3606 14.5117 55.7129C15.0424 55.8309 15.5731 55.8309 16.1629 55.7719C16.5179 55.7129 17.7568 55.6539 17.9325 55.3016C17.9917 55.1836 17.9325 54.8903 17.9325 54.7705V53.7726V47.5351V45.1209C17.9325 44.7096 18.0508 44.5326 17.6976 44.2966C17.2852 44.0623 16.812 43.8262 16.3996 43.5329C16.1055 43.3559 15.5157 43.1806 15.3382 42.9446C15.2216 42.8266 15.1607 42.1809 15.279 42.0612C15.3382 41.9449 15.3382 42.0039 15.5157 42.0039C16.0464 41.8859 16.7545 42.0039 17.2852 42.0039H26.4273C27.0171 42.0039 27.6661 41.9449 28.256 42.0039H28.4926C28.5518 42.0612 28.5518 42.8856 28.4926 43.0018C28.3743 43.1806 27.7845 43.4149 27.5496 43.5329C27.1372 43.7689 26.6656 44.0032 26.2515 44.2966C25.78 44.5326 25.8391 44.5326 25.8391 45.0602V54.6508C25.8391 54.7671 25.8983 55.0621 25.8391 55.1801C25.7208 55.4752 24.4819 55.6504 24.1287 55.7702C23.1265 56.0635 22.0633 56.2995 21.0036 56.4748C18.9383 56.8272 16.8746 56.9452 14.8092 56.8862C11.5067 56.7699 8.02492 56.0618 5.31225 54.0624C2.95279 52.3564 1.41985 49.767 0.711664 46.9415C0.177481 45.2962 0 43.4722 0 41.7071ZM27.1929 36.353C27.1929 36.235 27.1337 35.7646 27.1929 35.7056C27.252 35.6466 27.3112 35.7056 27.3703 35.6466C27.7253 35.4696 28.1968 35.4696 28.6092 35.4106C29.9664 35.1746 31.3236 34.9403 32.7383 34.706C33.7997 34.5289 34.8628 34.2946 35.8651 34.1749C36.1591 34.1176 36.5141 34.1176 36.8081 34.2339C37.1022 34.2929 36.9856 34.2339 37.0448 34.4699C37.1614 35.1746 37.0448 36.0007 37.0448 36.7053V49.0016C37.0448 50.4733 36.6324 53.179 38.047 54.0624C38.7552 54.5328 39.7575 54.5328 40.584 54.3575C41.233 54.2395 42.4719 53.7691 42.7085 53.0628C42.7677 52.8857 42.7085 52.6514 42.7085 52.4744V51.2387V43.0608V39.2947V38.0608C42.7085 37.9427 42.7677 37.5904 42.7085 37.4707C42.531 37.2936 41.9412 37.1184 41.7654 37.0593C41.4105 36.9431 41.1164 36.766 40.7632 36.648C40.6449 36.5908 40.2325 36.5317 40.1733 36.4137C40.1142 36.3547 40.1142 35.8254 40.1733 35.7664C40.2325 35.7074 40.2325 35.7664 40.2916 35.7074C40.5857 35.5303 41.1181 35.5911 41.4122 35.5303C43.8308 35.119 46.3086 34.5879 48.7864 34.2356C49.0804 34.1766 49.3762 34.1766 49.672 34.2356C49.9661 34.2946 49.8495 34.1766 49.9069 34.4717C50.0252 35.06 49.9069 35.8827 49.9069 36.5317V53.4776C49.9069 53.6546 49.8478 53.9479 49.9069 54.1822C49.9661 54.3609 49.9069 54.3002 50.201 54.4182C50.7909 54.6542 51.4399 54.9493 52.0297 55.1819C52.2072 55.2409 52.2646 55.2409 52.3238 55.3606C52.383 55.4769 52.383 55.8899 52.3238 55.8899C52.2055 56.008 51.6156 55.949 51.4973 56.008C50.1993 56.185 48.9012 56.3013 47.5457 56.4783C46.366 56.5963 45.1863 56.7733 44.0657 56.8896C43.8291 56.9486 43.5942 56.9486 43.3575 56.8896C43.241 56.8896 42.886 56.8896 42.8268 56.8306C42.7677 56.7143 42.8268 56.2423 42.8268 56.126V55.1228C42.8268 54.9458 42.9452 54.4755 42.8268 54.2985C42.7085 54.1214 42.4719 54.3575 42.2961 54.4755C41.8246 54.8868 41.2921 55.2999 40.7632 55.5949C38.8161 56.7716 36.3975 57.2992 34.1564 56.8289C32.5051 56.4766 31.0887 55.5359 30.3823 53.9479C29.8516 52.8285 29.7333 51.5945 29.7333 50.4178V43.4166V39.4145V38.0625C29.7333 37.9445 29.7924 37.5922 29.7333 37.4724C29.6167 37.2954 28.9068 37.1201 28.731 37.0021C28.1377 36.766 27.6644 36.589 27.1929 36.353ZM82.8192 34.1176C82.9375 34.1176 83.4682 34.1176 83.5274 34.2339C83.5865 34.2929 83.5274 34.7042 83.5274 34.7632V39.9421C83.5274 40.1191 83.4682 40.4124 83.5274 40.5877V40.7057C83.764 40.94 83.8214 40.1746 83.8823 40.1174C84.413 37.9393 85.4153 35.4089 87.6564 34.5272C88.0688 34.3502 88.4829 34.2912 88.8953 34.2322C89.2485 34.2322 90.2525 34.1159 90.43 34.4092C90.4874 34.5272 90.43 34.8205 90.43 34.9403V40.94C89.0136 40.6467 87.4215 40.7057 86.0643 40.999C85.4153 41.117 84.8272 41.2941 84.2356 41.5891C83.9415 41.7054 83.8823 41.6464 83.8232 41.8824C83.764 42.1184 83.8232 42.5298 83.8232 42.7658V54.1214C83.8232 54.2377 83.764 54.4147 83.8232 54.5328C83.9415 54.7098 84.3539 54.8261 84.5314 54.8851C84.8272 55.0621 85.1804 55.2374 85.4744 55.4144C85.5928 55.4734 85.7685 55.5324 85.8294 55.6504C85.8886 55.7095 85.8886 56.4158 85.8294 56.4748C85.7702 56.5338 85.417 56.4748 85.2987 56.4748H75.5077C75.2119 56.4748 74.6812 56.5929 74.4463 56.4748H74.2688C74.2096 56.4176 74.2688 55.7702 74.2688 55.7112C74.3871 55.3589 75.1545 55.1228 75.5077 54.9476C75.7426 54.8295 76.2159 54.6525 76.3342 54.4165C76.3933 54.3002 76.3342 53.9462 76.3342 53.8281V52.5924V37.4707C76.3342 37.4134 76.3933 37.1184 76.3342 37.0593C76.275 37.0021 75.9792 36.9431 75.8626 36.9431C75.5094 36.8251 75.1545 36.707 74.8012 36.648C74.4463 36.5317 73.5623 36.471 73.8581 35.8844C73.9173 35.7074 74.1522 35.7681 74.3888 35.7074C76.9849 35.237 79.5219 34.765 82.1162 34.2964C82.3477 34.1766 82.5826 34.1766 82.8192 34.1176ZM105.058 34.647V29.9419V28.5882C105.058 28.4112 105.116 28.0588 105.058 27.8818C104.999 27.7638 104.762 27.7048 104.587 27.6458C104.115 27.4688 103.644 27.2917 103.111 27.1164C102.758 26.9984 102.58 27.0574 102.58 26.6461C102.58 26.2921 102.521 26.4101 102.817 26.3511C103.466 26.1168 104.232 26.1168 104.883 25.9988C106.828 25.6464 108.716 25.2924 110.663 24.9401C111.075 24.8811 111.489 24.7631 111.902 24.8238C112.373 24.8828 112.432 24.7648 112.432 25.1761C112.492 26.1168 112.432 27.1182 112.432 28.0588V53.8281C112.432 54.0642 112.375 54.0642 112.551 54.1804C112.904 54.4165 113.494 54.5345 113.849 54.6508C114.084 54.7098 114.733 54.8278 114.849 55.0031C114.908 55.0621 114.908 55.7095 114.849 55.7685C114.792 55.8275 114.439 55.8275 114.378 55.8275C113.551 55.9438 112.784 56.0618 111.959 56.1208C110.129 56.3568 108.3 56.5911 106.412 56.8254C106.118 56.8844 105.41 57.0042 105.291 56.7681C105.173 56.5321 105.291 55.7685 105.291 55.5324C105.291 55.3554 105.408 54.59 105.291 54.4738C105.173 54.3575 103.877 55.5324 103.699 55.6504C102.991 56.1208 102.224 56.4748 101.399 56.7091C100.101 57.0614 98.6254 57.0614 97.3274 56.7681C91.6654 55.4734 90.4839 48.7673 90.9572 43.8818C91.1939 41.2941 92.0186 38.7046 93.7899 36.8216C95.4395 35.1173 97.6824 34.2339 99.9844 34.0569C101.754 33.8833 103.466 33.9996 105.058 34.647ZM105.058 53.4151V38.9407V36.2332C105.058 35.8809 104.999 35.8236 104.587 35.5876C103.76 35.1173 102.699 34.9403 101.815 35.2926C100.458 35.8237 99.8086 37.4117 99.4554 38.7046C98.7472 41.058 98.6898 43.5885 98.7472 46.0599C98.8064 48.179 98.8656 50.7666 100.045 52.6497C101.105 54.2985 103.524 54.7115 105.058 53.4151ZM124.583 34.1176C124.879 34.1749 125.232 34.0586 125.35 34.3536C125.408 34.5307 125.35 34.942 125.35 35.1173V53.5331C125.35 53.7691 125.291 54.1214 125.35 54.3575C125.408 54.5918 125.646 54.6508 125.881 54.7671C126.236 54.9458 126.53 55.1211 126.883 55.2981C127.001 55.3571 127.355 55.4752 127.416 55.6504C127.416 55.7095 127.475 56.4158 127.416 56.4748H127.238C126.883 56.5338 126.412 56.4748 125.999 56.4748H117.033C116.796 56.4748 116.147 56.5929 115.972 56.4748C115.855 56.4176 115.794 55.7112 115.914 55.5932C116.031 55.4144 116.445 55.2981 116.621 55.2391C116.974 55.0621 117.329 54.8278 117.682 54.6508C117.978 54.4738 117.919 54.5345 117.919 54.2985C118.035 53.4151 117.919 52.4154 117.919 51.532V46.8842V38.4113C117.919 38.1753 117.978 37.764 117.919 37.5279C117.859 37.2919 117.564 37.2936 117.329 37.1774C116.915 37.0003 116.561 36.8823 116.147 36.707C116.031 36.648 115.557 36.5908 115.441 36.4137C115.382 36.3547 115.382 35.7664 115.441 35.7074C115.498 35.6484 115.618 35.7074 115.678 35.6484C116.149 35.4713 116.68 35.4713 117.21 35.3551C117.978 35.237 118.686 35.06 119.452 34.9437C120.927 34.7077 122.342 34.4127 123.817 34.1784C124.111 34.2356 124.348 34.1766 124.583 34.1176ZM125.408 28.6472C125.291 32.1755 120.513 33.7063 118.331 30.9398C117.329 29.6469 117.27 27.8818 118.154 26.5281C119.037 25.1744 120.748 24.586 122.34 24.9383C124.111 25.2924 125.408 26.8231 125.408 28.6472ZM151.247 54.4755V40.2961V37.5887C151.247 37.5297 151.304 37.2346 151.247 37.1774C151.188 37.0594 150.833 37.0003 150.714 37.0003L149.653 36.6463C149.475 36.589 149.004 36.53 148.887 36.353C148.769 36.235 148.828 35.9417 148.828 35.7646C148.828 35.4106 148.946 35.4696 149.3 35.4106L153.192 34.706L157.085 33.9996C157.321 33.9423 157.497 33.8833 157.734 33.8833C157.852 33.8833 158.442 33.8833 158.56 33.9423C158.619 33.9996 158.56 34.3536 158.56 34.4717V35.5911C158.56 35.7681 158.443 36.2957 158.56 36.4727C158.678 36.7088 158.913 36.4727 159.091 36.2957C159.623 35.8844 160.154 35.5321 160.744 35.237C162.867 34.0603 165.403 33.5327 167.822 33.8851C169.472 34.1211 170.831 35.0027 171.419 36.5925C171.831 37.7102 171.89 38.8851 171.89 40.0636V53.4776C171.89 53.7136 171.831 54.1249 171.89 54.3609C171.949 54.5952 172.127 54.6543 172.421 54.7705C172.717 54.9493 173.07 55.1246 173.366 55.3016C173.482 55.3606 173.896 55.4786 173.956 55.6539C174.015 55.7719 174.015 56.3603 173.956 56.4193C173.896 56.5356 174.015 56.4193 173.837 56.4766C173.602 56.5946 173.072 56.4766 172.776 56.4766H164.34C163.987 56.4766 162.63 56.6536 162.452 56.4193C162.395 56.3603 162.395 55.7129 162.452 55.5949C162.512 55.4769 162.865 55.3589 162.985 55.2999C163.338 55.1228 163.634 54.9476 163.987 54.7688C164.104 54.7115 164.459 54.5918 164.518 54.4755C164.577 54.3592 164.518 54.1232 164.518 54.0052V52.7104V48.592V40.6484C164.518 39.7078 164.577 38.6491 163.987 37.8247C163.516 37.1184 162.689 36.9413 161.863 36.8823C161.214 36.8823 160.624 36.9413 160.034 37.1184C159.74 37.2346 158.854 37.4707 158.678 37.8247C158.619 37.941 158.678 38.177 158.678 38.2951V53.5348C158.678 53.7119 158.619 54.1232 158.678 54.2985C158.736 54.5345 159.089 54.5918 159.268 54.7098C159.562 54.8868 159.917 55.0621 160.211 55.2391C160.33 55.2981 160.565 55.4161 160.624 55.4752C160.683 55.5342 160.683 56.2388 160.624 56.2995C160.624 56.3585 160.565 56.2995 160.507 56.2995C160.27 56.4176 159.681 56.2995 159.446 56.2995H149.536C149.241 56.2995 149.181 56.3585 149.124 56.1833C149.065 56.0652 149.065 55.5359 149.124 55.4179C149.181 55.3016 149.536 55.1819 149.655 55.1246C150.243 55.0638 150.714 54.7688 151.247 54.4755ZM138.74 43.6492C138.74 42.1185 138.799 40.5304 138.68 38.9407C138.503 37.2346 138.033 35.3533 136.086 34.9993C135.496 34.883 134.435 34.706 134.021 35.1763C133.608 35.5894 133.313 36.1777 132.959 36.648L129.951 40.7092C129.773 40.9435 129.596 41.4138 129.359 41.5336C129.302 41.5926 128.71 41.5926 128.71 41.5336C128.653 41.4746 128.71 41.0632 128.71 40.9435V36.1794C128.71 36.0024 128.653 35.7091 128.71 35.5321C128.829 35.237 130.127 35.0617 130.421 34.9437C132.072 34.5324 133.784 34.2374 135.494 34.1193C137.913 33.9423 140.626 34.0013 142.867 35.06C144.636 35.8844 145.757 37.3544 146.053 39.2375C146.23 40.1781 146.169 41.2368 146.169 42.1792V53.9462C146.169 54.1232 146.053 54.5918 146.169 54.7098C146.229 54.7671 146.523 54.8261 146.582 54.8261C147.053 54.9441 147.467 55.0621 147.939 55.1784C148.233 55.2374 148.292 55.2374 148.292 55.5324C148.292 55.8275 148.351 55.8275 147.996 55.9438C147.584 56.1208 147.17 56.2961 146.758 56.4141C144.576 57.0597 141.153 57.2385 139.561 55.2357C139.444 55.0586 139.089 54.295 138.912 54.236C138.675 54.177 137.969 55.1194 137.732 55.2947C136.787 56.119 135.55 56.5894 134.31 56.7664C132.011 57.0597 129.533 56.5894 128.115 54.5883C126.935 52.884 126.7 50.2356 127.584 48.3525C129.176 44.7634 133.897 44.4111 137.318 43.8227C137.737 43.8262 138.211 43.7082 138.74 43.6492ZM138.74 53.4151V44.7061C136.968 44.8242 135.141 44.9422 134.494 46.8842C134.022 48.1789 134.022 49.708 134.198 51.0599C134.315 52.0023 134.551 53.179 135.437 53.7691C136.38 54.4165 137.974 54.2985 138.74 53.4151ZM64.0602 43.6492C64.0602 42.1185 64.1193 40.5304 64.001 38.9407C63.8235 37.2346 63.352 35.3533 61.4049 34.9993C60.815 34.883 59.7536 34.706 59.3395 35.1763C58.9271 35.5894 58.6313 36.1777 58.2781 36.648L55.2696 40.7092C55.0922 40.9435 54.9164 41.4138 54.6798 41.5336C54.6206 41.5926 54.0308 41.5926 54.0308 41.5336C53.9716 41.4746 54.0308 41.0632 54.0308 40.9435V36.2367C54.0308 36.0597 53.9716 35.7664 54.0308 35.5911C54.1491 35.296 55.388 35.1208 55.7412 35.001C57.3924 34.5897 59.1029 34.2964 60.7541 34.1766C63.1728 33.9996 65.8872 34.0603 68.1283 35.119C69.8979 35.9434 71.0185 37.4134 71.3143 39.2947C71.4917 40.2371 71.4326 41.2958 71.4326 42.2365V54.0034C71.4326 54.1804 71.3143 54.6508 71.4326 54.7671C71.4917 54.8261 71.7875 54.8851 71.845 54.8851C72.3165 55.0014 72.7306 55.1211 73.2022 55.2374C73.4962 55.2964 73.5571 55.2964 73.5571 55.5914C73.5571 55.8848 73.6163 55.8848 73.2613 56.0028C72.8489 56.1798 72.4348 56.3551 72.0224 56.4731C69.8405 57.1204 66.4179 57.2975 64.8258 55.2964C64.7074 55.1194 64.3542 54.3557 64.1767 54.2967C63.9401 54.2377 63.2337 55.1784 63.0562 55.3554C62.1131 56.1798 60.8742 56.6484 59.6353 56.8254C57.335 57.1205 54.8573 56.6484 53.4409 54.649C52.2612 52.943 52.0263 50.2946 52.9102 48.4115C54.504 44.8242 59.2212 44.4701 62.5846 43.8818C63.0579 43.8262 63.5295 43.7082 64.0602 43.6492ZM64.0602 53.4151V44.7061C62.2906 44.8242 60.4618 44.9422 59.8128 46.8842C59.3413 48.1789 59.3413 49.708 59.5187 51.0599C59.6371 52.0023 59.8737 53.179 60.7576 53.7691C61.7007 54.4165 63.2946 54.2985 64.0602 53.4151Z" fill="white"/>
</svg>
