<svg width="158" height="41" viewBox="0 0 158 41" fill="none" xmlns="http://www.w3.org/2000/svg">
<path d="M45.9083 0.175616C36.7344 0.241205 29.2305 10.4372 29.2305 19.3305C29.2305 28.6892 34.7312 40.1054 45.9083 40.0683C57.0853 40.0313 62.8866 27.7408 62.8866 19.3305C62.8866 10.0407 55.0821 0.110029 45.9083 0.175616ZM45.9083 0.524441C53.5864 0.524441 55.6579 9.00438 55.6579 19.3305C55.6579 32.9557 53.1591 39.6776 45.9083 39.6648C38.6574 39.652 36.2985 34.1504 36.2985 19.3305C36.2985 10.0471 38.2301 0.524441 45.9083 0.524441Z" fill="#EDEDED"/>
<path d="M65.9142 19.5814C65.8731 9.46221 73.972 0.498563 80.8278 0.0538344C83.3042 -0.121609 86.4874 1.01243 88.3458 1.82027C89.6953 2.40688 92.45 1.55778 92.9392 0H93.206V13.7842H92.9392C92.9392 13.1966 90.3865 0.400393 80.8278 0.400393C73.7674 0.400393 73.0854 12.8151 73.0854 19.5814C73.0854 26.3477 73.2911 39.7426 81.5302 39.7426C85.5214 39.7426 88.4758 37.9965 89.2417 34.4638V23.7223H85.8915V23.2648H98.8773V23.7223H95.6744V39.4263H95.4136C95.4136 39.4263 94.8929 37.1604 92.2507 37.168C88.8736 37.1776 85.6888 40.1116 81.8065 40.0759C71.5393 39.9815 65.9553 29.7005 65.9142 19.5814Z" fill="#EDEDED"/>
<path d="M4.04338 1.53361H0V1.0791H14.1642V1.53361H10.6107L20.7314 29.0181C23.8961 19.2748 26.3478 12.0725 29.6471 1.53361H26.1324V1.0791H33.6111V1.53361H30.2054L17.9048 39.8798L4.04338 1.53361Z" fill="#EDEDED"/>
<path d="M100.862 30.4913L100.798 1.48912H96.9492V1.05469H111.129V1.48912H107.282L107.368 33.2884C108.219 36.9297 109.733 39.6927 114.905 39.7338C120.077 39.7749 123.594 36.6741 124.9 32.4365V1.48912H120.498L120.498 1.06748H156.533L156.608 14.9897H156.262C155.593 6.00064 152.125 2.60343 146.059 1.61234C143.972 1.2713 141.782 1.52412 139.014 1.5026V19.271C141.424 19.4572 143.992 19.3049 145.722 17.8186C147.296 16.4671 147.741 13.3445 147.856 12.0759H148.161V27.5467H147.831C147.736 27.5467 147.61 23.6644 145.722 21.8225C143.823 19.9685 141.404 19.5127 139.014 19.9544V38.9349C142.39 38.9349 145.082 39.2209 147.419 38.5801C154.524 36.6322 157.025 30.638 157.006 24.6261H157.401V39.3843H129.136V38.9349H132.332V1.48912H125.427V32.4365C124.644 35.3976 121.783 40.2963 114.453 40.2629C107.637 40.2318 100.877 37.1589 100.862 30.4913Z" fill="#EDEDED"/>
</svg>
